G04 #@! TF.GenerationSoftware,KiCad,Pcbnew,(5.1.10)-1*
G04 #@! TF.CreationDate,2021-07-11T13:09:49-07:00*
G04 #@! TF.ProjectId,NightLight,4e696768-744c-4696-9768-742e6b696361,rev?*
G04 #@! TF.SameCoordinates,Original*
G04 #@! TF.FileFunction,Legend,Top*
G04 #@! TF.FilePolarity,Positive*
%FSLAX46Y46*%
G04 Gerber Fmt 4.6, Leading zero omitted, Abs format (unit mm)*
G04 Created by KiCad (PCBNEW (5.1.10)-1) date 2021-07-11 13:09:49*
%MOMM*%
%LPD*%
G01*
G04 APERTURE LIST*
%ADD10C,0.177800*%
%ADD11C,0.150000*%
%ADD12C,0.120000*%
%ADD13C,0.010000*%
%ADD14C,0.300000*%
G04 APERTURE END LIST*
D10*
X15419605Y-3175000D02*
G75*
G03*
X15419605Y-3175000I-179605J0D01*
G01*
X-4626428Y-6513285D02*
X-4203095Y-6513285D01*
X-4021666Y-7178523D02*
X-4626428Y-7178523D01*
X-4626428Y-5908523D01*
X-4021666Y-5908523D01*
X-3477380Y-7178523D02*
X-3477380Y-5908523D01*
X-2751666Y-7178523D01*
X-2751666Y-5908523D01*
X-1481666Y-5969000D02*
X-1602619Y-5908523D01*
X-1784047Y-5908523D01*
X-1965476Y-5969000D01*
X-2086428Y-6089952D01*
X-2146904Y-6210904D01*
X-2207380Y-6452809D01*
X-2207380Y-6634238D01*
X-2146904Y-6876142D01*
X-2086428Y-6997095D01*
X-1965476Y-7118047D01*
X-1784047Y-7178523D01*
X-1663095Y-7178523D01*
X-1481666Y-7118047D01*
X-1421190Y-7057571D01*
X-1421190Y-6634238D01*
X-1663095Y-6634238D01*
X-151190Y-7178523D02*
X-574523Y-6573761D01*
X-876904Y-7178523D02*
X-876904Y-5908523D01*
X-393095Y-5908523D01*
X-272142Y-5969000D01*
X-211666Y-6029476D01*
X-151190Y-6150428D01*
X-151190Y-6331857D01*
X-211666Y-6452809D01*
X-272142Y-6513285D01*
X-393095Y-6573761D01*
X-876904Y-6573761D01*
X272142Y-5908523D02*
X1058333Y-5908523D01*
X635000Y-6392333D01*
X816428Y-6392333D01*
X937380Y-6452809D01*
X997857Y-6513285D01*
X1058333Y-6634238D01*
X1058333Y-6936619D01*
X997857Y-7057571D01*
X937380Y-7118047D01*
X816428Y-7178523D01*
X453571Y-7178523D01*
X332619Y-7118047D01*
X272142Y-7057571D01*
X1542142Y-6029476D02*
X1602619Y-5969000D01*
X1723571Y-5908523D01*
X2025952Y-5908523D01*
X2146904Y-5969000D01*
X2207380Y-6029476D01*
X2267857Y-6150428D01*
X2267857Y-6271380D01*
X2207380Y-6452809D01*
X1481666Y-7178523D01*
X2267857Y-7178523D01*
X3356428Y-5908523D02*
X3114523Y-5908523D01*
X2993571Y-5969000D01*
X2933095Y-6029476D01*
X2812142Y-6210904D01*
X2751666Y-6452809D01*
X2751666Y-6936619D01*
X2812142Y-7057571D01*
X2872619Y-7118047D01*
X2993571Y-7178523D01*
X3235476Y-7178523D01*
X3356428Y-7118047D01*
X3416904Y-7057571D01*
X3477380Y-6936619D01*
X3477380Y-6634238D01*
X3416904Y-6513285D01*
X3356428Y-6452809D01*
X3235476Y-6392333D01*
X2993571Y-6392333D01*
X2872619Y-6452809D01*
X2812142Y-6513285D01*
X2751666Y-6634238D01*
X4263571Y-5908523D02*
X4384523Y-5908523D01*
X4505476Y-5969000D01*
X4565952Y-6029476D01*
X4626428Y-6150428D01*
X4686904Y-6392333D01*
X4686904Y-6694714D01*
X4626428Y-6936619D01*
X4565952Y-7057571D01*
X4505476Y-7118047D01*
X4384523Y-7178523D01*
X4263571Y-7178523D01*
X4142619Y-7118047D01*
X4082142Y-7057571D01*
X4021666Y-6936619D01*
X3961190Y-6694714D01*
X3961190Y-6392333D01*
X4021666Y-6150428D01*
X4082142Y-6029476D01*
X4142619Y-5969000D01*
X4263571Y-5908523D01*
X-11980333Y-5019523D02*
X-11980333Y-3749523D01*
X-11677952Y-3749523D01*
X-11496523Y-3810000D01*
X-11375571Y-3930952D01*
X-11315095Y-4051904D01*
X-11254619Y-4293809D01*
X-11254619Y-4475238D01*
X-11315095Y-4717142D01*
X-11375571Y-4838095D01*
X-11496523Y-4959047D01*
X-11677952Y-5019523D01*
X-11980333Y-5019523D01*
X-10226523Y-4959047D02*
X-10347476Y-5019523D01*
X-10589380Y-5019523D01*
X-10710333Y-4959047D01*
X-10770809Y-4838095D01*
X-10770809Y-4354285D01*
X-10710333Y-4233333D01*
X-10589380Y-4172857D01*
X-10347476Y-4172857D01*
X-10226523Y-4233333D01*
X-10166047Y-4354285D01*
X-10166047Y-4475238D01*
X-10770809Y-4596190D01*
X-9682238Y-4959047D02*
X-9561285Y-5019523D01*
X-9319380Y-5019523D01*
X-9198428Y-4959047D01*
X-9137952Y-4838095D01*
X-9137952Y-4777619D01*
X-9198428Y-4656666D01*
X-9319380Y-4596190D01*
X-9500809Y-4596190D01*
X-9621761Y-4535714D01*
X-9682238Y-4414761D01*
X-9682238Y-4354285D01*
X-9621761Y-4233333D01*
X-9500809Y-4172857D01*
X-9319380Y-4172857D01*
X-9198428Y-4233333D01*
X-8593666Y-5019523D02*
X-8593666Y-4172857D01*
X-8593666Y-3749523D02*
X-8654142Y-3810000D01*
X-8593666Y-3870476D01*
X-8533190Y-3810000D01*
X-8593666Y-3749523D01*
X-8593666Y-3870476D01*
X-7444619Y-4172857D02*
X-7444619Y-5200952D01*
X-7505095Y-5321904D01*
X-7565571Y-5382380D01*
X-7686523Y-5442857D01*
X-7867952Y-5442857D01*
X-7988904Y-5382380D01*
X-7444619Y-4959047D02*
X-7565571Y-5019523D01*
X-7807476Y-5019523D01*
X-7928428Y-4959047D01*
X-7988904Y-4898571D01*
X-8049380Y-4777619D01*
X-8049380Y-4414761D01*
X-7988904Y-4293809D01*
X-7928428Y-4233333D01*
X-7807476Y-4172857D01*
X-7565571Y-4172857D01*
X-7444619Y-4233333D01*
X-6839857Y-4172857D02*
X-6839857Y-5019523D01*
X-6839857Y-4293809D02*
X-6779380Y-4233333D01*
X-6658428Y-4172857D01*
X-6477000Y-4172857D01*
X-6356047Y-4233333D01*
X-6295571Y-4354285D01*
X-6295571Y-5019523D01*
X-4904619Y-4172857D02*
X-4420809Y-4172857D01*
X-4723190Y-5019523D02*
X-4723190Y-3930952D01*
X-4662714Y-3810000D01*
X-4541761Y-3749523D01*
X-4420809Y-3749523D01*
X-3816047Y-5019523D02*
X-3937000Y-4959047D01*
X-3997476Y-4898571D01*
X-4057952Y-4777619D01*
X-4057952Y-4414761D01*
X-3997476Y-4293809D01*
X-3937000Y-4233333D01*
X-3816047Y-4172857D01*
X-3634619Y-4172857D01*
X-3513666Y-4233333D01*
X-3453190Y-4293809D01*
X-3392714Y-4414761D01*
X-3392714Y-4777619D01*
X-3453190Y-4898571D01*
X-3513666Y-4959047D01*
X-3634619Y-5019523D01*
X-3816047Y-5019523D01*
X-2848428Y-5019523D02*
X-2848428Y-4172857D01*
X-2848428Y-4414761D02*
X-2787952Y-4293809D01*
X-2727476Y-4233333D01*
X-2606523Y-4172857D01*
X-2485571Y-4172857D01*
X-1094619Y-5019523D02*
X-1094619Y-3749523D01*
X-671285Y-4656666D01*
X-247952Y-3749523D01*
X-247952Y-5019523D01*
X901095Y-5019523D02*
X901095Y-4354285D01*
X840619Y-4233333D01*
X719666Y-4172857D01*
X477761Y-4172857D01*
X356809Y-4233333D01*
X901095Y-4959047D02*
X780142Y-5019523D01*
X477761Y-5019523D01*
X356809Y-4959047D01*
X296333Y-4838095D01*
X296333Y-4717142D01*
X356809Y-4596190D01*
X477761Y-4535714D01*
X780142Y-4535714D01*
X901095Y-4475238D01*
X1505857Y-4172857D02*
X1505857Y-5019523D01*
X1505857Y-4293809D02*
X1566333Y-4233333D01*
X1687285Y-4172857D01*
X1868714Y-4172857D01*
X1989666Y-4233333D01*
X2050142Y-4354285D01*
X2050142Y-5019523D01*
X3199190Y-4172857D02*
X3199190Y-5019523D01*
X2654904Y-4172857D02*
X2654904Y-4838095D01*
X2715380Y-4959047D01*
X2836333Y-5019523D01*
X3017761Y-5019523D01*
X3138714Y-4959047D01*
X3199190Y-4898571D01*
X3622523Y-4172857D02*
X4106333Y-4172857D01*
X3803952Y-5019523D02*
X3803952Y-3930952D01*
X3864428Y-3810000D01*
X3985380Y-3749523D01*
X4106333Y-3749523D01*
X5073952Y-5019523D02*
X5073952Y-4354285D01*
X5013476Y-4233333D01*
X4892523Y-4172857D01*
X4650619Y-4172857D01*
X4529666Y-4233333D01*
X5073952Y-4959047D02*
X4952999Y-5019523D01*
X4650619Y-5019523D01*
X4529666Y-4959047D01*
X4469190Y-4838095D01*
X4469190Y-4717142D01*
X4529666Y-4596190D01*
X4650619Y-4535714D01*
X4952999Y-4535714D01*
X5073952Y-4475238D01*
X6222999Y-4959047D02*
X6102047Y-5019523D01*
X5860142Y-5019523D01*
X5739190Y-4959047D01*
X5678714Y-4898571D01*
X5618238Y-4777619D01*
X5618238Y-4414761D01*
X5678714Y-4293809D01*
X5739190Y-4233333D01*
X5860142Y-4172857D01*
X6102047Y-4172857D01*
X6222999Y-4233333D01*
X6585857Y-4172857D02*
X7069666Y-4172857D01*
X6767285Y-3749523D02*
X6767285Y-4838095D01*
X6827761Y-4959047D01*
X6948714Y-5019523D01*
X7069666Y-5019523D01*
X8037285Y-4172857D02*
X8037285Y-5019523D01*
X7492999Y-4172857D02*
X7492999Y-4838095D01*
X7553476Y-4959047D01*
X7674428Y-5019523D01*
X7855857Y-5019523D01*
X7976809Y-4959047D01*
X8037285Y-4898571D01*
X8642047Y-5019523D02*
X8642047Y-4172857D01*
X8642047Y-4414761D02*
X8702523Y-4293809D01*
X8762999Y-4233333D01*
X8883952Y-4172857D01*
X9004904Y-4172857D01*
X9428238Y-5019523D02*
X9428238Y-4172857D01*
X9428238Y-3749523D02*
X9367761Y-3810000D01*
X9428238Y-3870476D01*
X9488714Y-3810000D01*
X9428238Y-3749523D01*
X9428238Y-3870476D01*
X10032999Y-4172857D02*
X10032999Y-5019523D01*
X10032999Y-4293809D02*
X10093476Y-4233333D01*
X10214428Y-4172857D01*
X10395857Y-4172857D01*
X10516809Y-4233333D01*
X10577285Y-4354285D01*
X10577285Y-5019523D01*
X11726333Y-4172857D02*
X11726333Y-5200952D01*
X11665857Y-5321904D01*
X11605380Y-5382380D01*
X11484428Y-5442857D01*
X11302999Y-5442857D01*
X11182047Y-5382380D01*
X11726333Y-4959047D02*
X11605380Y-5019523D01*
X11363476Y-5019523D01*
X11242523Y-4959047D01*
X11182047Y-4898571D01*
X11121571Y-4777619D01*
X11121571Y-4414761D01*
X11182047Y-4293809D01*
X11242523Y-4233333D01*
X11363476Y-4172857D01*
X11605380Y-4172857D01*
X11726333Y-4233333D01*
D11*
X29106904Y5008619D02*
X29106904Y6008619D01*
X29345000Y6008619D01*
X29487857Y5961000D01*
X29583095Y5865761D01*
X29630714Y5770523D01*
X29678333Y5580047D01*
X29678333Y5437190D01*
X29630714Y5246714D01*
X29583095Y5151476D01*
X29487857Y5056238D01*
X29345000Y5008619D01*
X29106904Y5008619D01*
X30535476Y5675285D02*
X30535476Y5008619D01*
X30297380Y6056238D02*
X30059285Y5341952D01*
X30678333Y5341952D01*
X-30543333Y8548619D02*
X-30210000Y7548619D01*
X-29876666Y8548619D01*
X-28971904Y7643857D02*
X-29019523Y7596238D01*
X-29162380Y7548619D01*
X-29257619Y7548619D01*
X-29400476Y7596238D01*
X-29495714Y7691476D01*
X-29543333Y7786714D01*
X-29590952Y7977190D01*
X-29590952Y8120047D01*
X-29543333Y8310523D01*
X-29495714Y8405761D01*
X-29400476Y8501000D01*
X-29257619Y8548619D01*
X-29162380Y8548619D01*
X-29019523Y8501000D01*
X-28971904Y8453380D01*
X-27971904Y7643857D02*
X-28019523Y7596238D01*
X-28162380Y7548619D01*
X-28257619Y7548619D01*
X-28400476Y7596238D01*
X-28495714Y7691476D01*
X-28543333Y7786714D01*
X-28590952Y7977190D01*
X-28590952Y8120047D01*
X-28543333Y8310523D01*
X-28495714Y8405761D01*
X-28400476Y8501000D01*
X-28257619Y8548619D01*
X-28162380Y8548619D01*
X-28019523Y8501000D01*
X-27971904Y8453380D01*
X-10921904Y-28456000D02*
X-11017142Y-28408380D01*
X-11160000Y-28408380D01*
X-11302857Y-28456000D01*
X-11398095Y-28551238D01*
X-11445714Y-28646476D01*
X-11493333Y-28836952D01*
X-11493333Y-28979809D01*
X-11445714Y-29170285D01*
X-11398095Y-29265523D01*
X-11302857Y-29360761D01*
X-11160000Y-29408380D01*
X-11064761Y-29408380D01*
X-10921904Y-29360761D01*
X-10874285Y-29313142D01*
X-10874285Y-28979809D01*
X-11064761Y-28979809D01*
X-10445714Y-29408380D02*
X-10445714Y-28408380D01*
X-9874285Y-29408380D01*
X-9874285Y-28408380D01*
X-9398095Y-29408380D02*
X-9398095Y-28408380D01*
X-9160000Y-28408380D01*
X-9017142Y-28456000D01*
X-8921904Y-28551238D01*
X-8874285Y-28646476D01*
X-8826666Y-28836952D01*
X-8826666Y-28979809D01*
X-8874285Y-29170285D01*
X-8921904Y-29265523D01*
X-9017142Y-29360761D01*
X-9160000Y-29408380D01*
X-9398095Y-29408380D01*
X31202380Y-5190476D02*
X32202380Y-4857142D01*
X31202380Y-4523809D01*
X31297619Y-3476190D02*
X31250000Y-3428571D01*
X31202380Y-3333333D01*
X31202380Y-3095238D01*
X31250000Y-3000000D01*
X31297619Y-2952380D01*
X31392857Y-2904761D01*
X31488095Y-2904761D01*
X31630952Y-2952380D01*
X32202380Y-3523809D01*
X32202380Y-2904761D01*
X32107142Y-2476190D02*
X32154761Y-2428571D01*
X32202380Y-2476190D01*
X32154761Y-2523809D01*
X32107142Y-2476190D01*
X32202380Y-2476190D01*
X31202380Y-1809523D02*
X31202380Y-1714285D01*
X31250000Y-1619047D01*
X31297619Y-1571428D01*
X31392857Y-1523809D01*
X31583333Y-1476190D01*
X31821428Y-1476190D01*
X32011904Y-1523809D01*
X32107142Y-1571428D01*
X32154761Y-1619047D01*
X32202380Y-1714285D01*
X32202380Y-1809523D01*
X32154761Y-1904761D01*
X32107142Y-1952380D01*
X32011904Y-2000000D01*
X31821428Y-2047619D01*
X31583333Y-2047619D01*
X31392857Y-2000000D01*
X31297619Y-1952380D01*
X31250000Y-1904761D01*
X31202380Y-1809523D01*
X31821428Y-285714D02*
X31821428Y476190D01*
X31297619Y1666666D02*
X31250000Y1714285D01*
X31202380Y1809523D01*
X31202380Y2047619D01*
X31250000Y2142857D01*
X31297619Y2190476D01*
X31392857Y2238095D01*
X31488095Y2238095D01*
X31630952Y2190476D01*
X32202380Y1619047D01*
X32202380Y2238095D01*
X31202380Y2857142D02*
X31202380Y2952380D01*
X31250000Y3047619D01*
X31297619Y3095238D01*
X31392857Y3142857D01*
X31583333Y3190476D01*
X31821428Y3190476D01*
X32011904Y3142857D01*
X32107142Y3095238D01*
X32154761Y3047619D01*
X32202380Y2952380D01*
X32202380Y2857142D01*
X32154761Y2761904D01*
X32107142Y2714285D01*
X32011904Y2666666D01*
X31821428Y2619047D01*
X31583333Y2619047D01*
X31392857Y2666666D01*
X31297619Y2714285D01*
X31250000Y2761904D01*
X31202380Y2857142D01*
X31297619Y3571428D02*
X31250000Y3619047D01*
X31202380Y3714285D01*
X31202380Y3952380D01*
X31250000Y4047619D01*
X31297619Y4095238D01*
X31392857Y4142857D01*
X31488095Y4142857D01*
X31630952Y4095238D01*
X32202380Y3523809D01*
X32202380Y4142857D01*
X32202380Y5095238D02*
X32202380Y4523809D01*
X32202380Y4809523D02*
X31202380Y4809523D01*
X31345238Y4714285D01*
X31440476Y4619047D01*
X31488095Y4523809D01*
D10*
X-12917714Y4886476D02*
X-12675809Y4886476D01*
X-12554857Y4826000D01*
X-12433904Y4705047D01*
X-12373428Y4463142D01*
X-12373428Y4039809D01*
X-12433904Y3797904D01*
X-12554857Y3676952D01*
X-12675809Y3616476D01*
X-12917714Y3616476D01*
X-13038666Y3676952D01*
X-13159619Y3797904D01*
X-13220095Y4039809D01*
X-13220095Y4463142D01*
X-13159619Y4705047D01*
X-13038666Y4826000D01*
X-12917714Y4886476D01*
X-11647714Y3616476D02*
X-11768666Y3676952D01*
X-11829142Y3797904D01*
X-11829142Y4886476D01*
X-11163904Y3616476D02*
X-11163904Y4463142D01*
X-11163904Y4886476D02*
X-11224380Y4826000D01*
X-11163904Y4765523D01*
X-11103428Y4826000D01*
X-11163904Y4886476D01*
X-11163904Y4765523D01*
X-10559142Y4463142D02*
X-10559142Y3616476D01*
X-10559142Y4342190D02*
X-10498666Y4402666D01*
X-10377714Y4463142D01*
X-10196285Y4463142D01*
X-10075333Y4402666D01*
X-10014857Y4281714D01*
X-10014857Y3616476D01*
X-7716761Y3737428D02*
X-7777238Y3676952D01*
X-7958666Y3616476D01*
X-8079619Y3616476D01*
X-8261047Y3676952D01*
X-8382000Y3797904D01*
X-8442476Y3918857D01*
X-8502952Y4160761D01*
X-8502952Y4342190D01*
X-8442476Y4584095D01*
X-8382000Y4705047D01*
X-8261047Y4826000D01*
X-8079619Y4886476D01*
X-7958666Y4886476D01*
X-7777238Y4826000D01*
X-7716761Y4765523D01*
X-6991047Y3616476D02*
X-7112000Y3676952D01*
X-7172476Y3737428D01*
X-7232952Y3858380D01*
X-7232952Y4221238D01*
X-7172476Y4342190D01*
X-7112000Y4402666D01*
X-6991047Y4463142D01*
X-6809619Y4463142D01*
X-6688666Y4402666D01*
X-6628190Y4342190D01*
X-6567714Y4221238D01*
X-6567714Y3858380D01*
X-6628190Y3737428D01*
X-6688666Y3676952D01*
X-6809619Y3616476D01*
X-6991047Y3616476D01*
X-5842000Y3616476D02*
X-5962952Y3676952D01*
X-6023428Y3797904D01*
X-6023428Y4886476D01*
X-5176761Y3616476D02*
X-5297714Y3676952D01*
X-5358190Y3797904D01*
X-5358190Y4886476D01*
X-4209142Y3676952D02*
X-4330095Y3616476D01*
X-4572000Y3616476D01*
X-4692952Y3676952D01*
X-4753428Y3797904D01*
X-4753428Y4281714D01*
X-4692952Y4402666D01*
X-4572000Y4463142D01*
X-4330095Y4463142D01*
X-4209142Y4402666D01*
X-4148666Y4281714D01*
X-4148666Y4160761D01*
X-4753428Y4039809D01*
X-3060095Y4463142D02*
X-3060095Y3435047D01*
X-3120571Y3314095D01*
X-3181047Y3253619D01*
X-3302000Y3193142D01*
X-3483428Y3193142D01*
X-3604380Y3253619D01*
X-3060095Y3676952D02*
X-3181047Y3616476D01*
X-3422952Y3616476D01*
X-3543904Y3676952D01*
X-3604380Y3737428D01*
X-3664857Y3858380D01*
X-3664857Y4221238D01*
X-3604380Y4342190D01*
X-3543904Y4402666D01*
X-3422952Y4463142D01*
X-3181047Y4463142D01*
X-3060095Y4402666D01*
X-1971523Y3676952D02*
X-2092476Y3616476D01*
X-2334380Y3616476D01*
X-2455333Y3676952D01*
X-2515809Y3797904D01*
X-2515809Y4281714D01*
X-2455333Y4402666D01*
X-2334380Y4463142D01*
X-2092476Y4463142D01*
X-1971523Y4402666D01*
X-1911047Y4281714D01*
X-1911047Y4160761D01*
X-2515809Y4039809D01*
X-217714Y3616476D02*
X-338666Y3676952D01*
X-399142Y3737428D01*
X-459619Y3858380D01*
X-459619Y4221238D01*
X-399142Y4342190D01*
X-338666Y4402666D01*
X-217714Y4463142D01*
X-36285Y4463142D01*
X84666Y4402666D01*
X145142Y4342190D01*
X205619Y4221238D01*
X205619Y3858380D01*
X145142Y3737428D01*
X84666Y3676952D01*
X-36285Y3616476D01*
X-217714Y3616476D01*
X568476Y4463142D02*
X1052285Y4463142D01*
X749904Y3616476D02*
X749904Y4705047D01*
X810380Y4826000D01*
X931333Y4886476D01*
X1052285Y4886476D01*
X2443238Y4281714D02*
X2866571Y4281714D01*
X3047999Y3616476D02*
X2443238Y3616476D01*
X2443238Y4886476D01*
X3047999Y4886476D01*
X3592285Y4463142D02*
X3592285Y3616476D01*
X3592285Y4342190D02*
X3652761Y4402666D01*
X3773714Y4463142D01*
X3955142Y4463142D01*
X4076095Y4402666D01*
X4136571Y4281714D01*
X4136571Y3616476D01*
X5285619Y4463142D02*
X5285619Y3435047D01*
X5225142Y3314095D01*
X5164666Y3253619D01*
X5043714Y3193142D01*
X4862285Y3193142D01*
X4741333Y3253619D01*
X5285619Y3676952D02*
X5164666Y3616476D01*
X4922761Y3616476D01*
X4801809Y3676952D01*
X4741333Y3737428D01*
X4680857Y3858380D01*
X4680857Y4221238D01*
X4741333Y4342190D01*
X4801809Y4402666D01*
X4922761Y4463142D01*
X5164666Y4463142D01*
X5285619Y4402666D01*
X5890380Y3616476D02*
X5890380Y4463142D01*
X5890380Y4886476D02*
X5829904Y4826000D01*
X5890380Y4765523D01*
X5950857Y4826000D01*
X5890380Y4886476D01*
X5890380Y4765523D01*
X6495142Y4463142D02*
X6495142Y3616476D01*
X6495142Y4342190D02*
X6555619Y4402666D01*
X6676571Y4463142D01*
X6858000Y4463142D01*
X6978952Y4402666D01*
X7039428Y4281714D01*
X7039428Y3616476D01*
X8128000Y3676952D02*
X8007047Y3616476D01*
X7765142Y3616476D01*
X7644190Y3676952D01*
X7583714Y3797904D01*
X7583714Y4281714D01*
X7644190Y4402666D01*
X7765142Y4463142D01*
X8007047Y4463142D01*
X8128000Y4402666D01*
X8188476Y4281714D01*
X8188476Y4160761D01*
X7583714Y4039809D01*
X9216571Y3676952D02*
X9095619Y3616476D01*
X8853714Y3616476D01*
X8732761Y3676952D01*
X8672285Y3797904D01*
X8672285Y4281714D01*
X8732761Y4402666D01*
X8853714Y4463142D01*
X9095619Y4463142D01*
X9216571Y4402666D01*
X9277047Y4281714D01*
X9277047Y4160761D01*
X8672285Y4039809D01*
X9821333Y3616476D02*
X9821333Y4463142D01*
X9821333Y4221238D02*
X9881809Y4342190D01*
X9942285Y4402666D01*
X10063238Y4463142D01*
X10184190Y4463142D01*
X10607523Y3616476D02*
X10607523Y4463142D01*
X10607523Y4886476D02*
X10547047Y4826000D01*
X10607523Y4765523D01*
X10668000Y4826000D01*
X10607523Y4886476D01*
X10607523Y4765523D01*
X11212285Y4463142D02*
X11212285Y3616476D01*
X11212285Y4342190D02*
X11272761Y4402666D01*
X11393714Y4463142D01*
X11575142Y4463142D01*
X11696095Y4402666D01*
X11756571Y4281714D01*
X11756571Y3616476D01*
X12905619Y4463142D02*
X12905619Y3435047D01*
X12845142Y3314095D01*
X12784666Y3253619D01*
X12663714Y3193142D01*
X12482285Y3193142D01*
X12361333Y3253619D01*
X12905619Y3676952D02*
X12784666Y3616476D01*
X12542761Y3616476D01*
X12421809Y3676952D01*
X12361333Y3737428D01*
X12300857Y3858380D01*
X12300857Y4221238D01*
X12361333Y4342190D01*
X12421809Y4402666D01*
X12542761Y4463142D01*
X12784666Y4463142D01*
X12905619Y4402666D01*
D11*
X-16204146Y27904189D02*
X-15659507Y27065518D01*
X-17030883Y27253741D02*
X-17016882Y27319613D01*
X-16923007Y27437356D01*
X-16843133Y27489226D01*
X-16697388Y27527095D01*
X-16565644Y27499092D01*
X-16473837Y27445154D01*
X-16330160Y27311342D01*
X-16252354Y27191532D01*
X-16188550Y27005850D01*
X-16176616Y26900041D01*
X-16204619Y26768298D01*
X-16298494Y26650555D01*
X-16378368Y26598685D01*
X-16524113Y26560816D01*
X-16589985Y26574818D01*
X-17376312Y27086197D02*
X-17522057Y27048328D01*
X-17721741Y26918652D01*
X-17775679Y26826845D01*
X-17789680Y26760973D01*
X-17777747Y26655164D01*
X-17725876Y26575291D01*
X-17634069Y26521353D01*
X-17568197Y26507351D01*
X-17462389Y26519285D01*
X-17276707Y26583089D01*
X-17170898Y26595023D01*
X-17105026Y26581021D01*
X-17013219Y26527083D01*
X-16961349Y26447209D01*
X-16949415Y26341401D01*
X-16963417Y26275529D01*
X-17017355Y26183722D01*
X-17217038Y26054046D01*
X-17362784Y26016177D01*
X-18240918Y26581494D02*
X-17696279Y25742824D01*
X-18015772Y25535342D01*
X-18121581Y25523408D01*
X-18187453Y25537410D01*
X-18279260Y25591348D01*
X-18357065Y25711158D01*
X-18368999Y25816967D01*
X-18354998Y25882839D01*
X-18301059Y25974646D01*
X-17981566Y26182127D01*
D10*
X7136190Y-2376714D02*
X8103809Y-2376714D01*
X-12929809Y-2376714D02*
X-11962190Y-2376714D01*
X-12446000Y-2860523D02*
X-12446000Y-1892904D01*
D12*
X-19697609Y23523060D02*
X-16930843Y19262614D01*
X-13306940Y27673210D02*
X-19697609Y23523060D01*
X-10540173Y23412763D02*
X-13306940Y27673210D01*
X-12670397Y22029380D02*
X-10540173Y23412763D01*
X-12324551Y21496824D02*
X-12670397Y22029380D01*
X-14454774Y20113441D02*
X-12324551Y21496824D01*
X-14800620Y20645997D02*
X-14454774Y20113441D01*
X-16930843Y19262614D02*
X-14800620Y20645997D01*
D13*
G36*
X2080365Y2196559D02*
G01*
X3011923Y1931743D01*
X3785796Y1586218D01*
X4386311Y1174846D01*
X4797793Y712492D01*
X5004569Y214018D01*
X4990964Y-305712D01*
X4926255Y-502071D01*
X4620731Y-967447D01*
X4113830Y-1423896D01*
X3445682Y-1848574D01*
X2656412Y-2218635D01*
X1786150Y-2511236D01*
X1134513Y-2660649D01*
X718274Y-2725038D01*
X211597Y-2785630D01*
X-332860Y-2838478D01*
X-862440Y-2879638D01*
X-1324487Y-2905162D01*
X-1666342Y-2911105D01*
X-1835348Y-2893523D01*
X-1844524Y-2883874D01*
X-1747431Y-2795333D01*
X-1493283Y-2628343D01*
X-1149048Y-2425909D01*
X-527932Y-2001912D01*
X118008Y-1435088D01*
X723713Y-792658D01*
X1224124Y-141839D01*
X1481666Y292147D01*
X1726164Y871298D01*
X1829988Y1386654D01*
X1838461Y1633355D01*
X1844280Y1994713D01*
X1886629Y2168996D01*
X1988903Y2210678D01*
X2080365Y2196559D01*
G37*
X2080365Y2196559D02*
X3011923Y1931743D01*
X3785796Y1586218D01*
X4386311Y1174846D01*
X4797793Y712492D01*
X5004569Y214018D01*
X4990964Y-305712D01*
X4926255Y-502071D01*
X4620731Y-967447D01*
X4113830Y-1423896D01*
X3445682Y-1848574D01*
X2656412Y-2218635D01*
X1786150Y-2511236D01*
X1134513Y-2660649D01*
X718274Y-2725038D01*
X211597Y-2785630D01*
X-332860Y-2838478D01*
X-862440Y-2879638D01*
X-1324487Y-2905162D01*
X-1666342Y-2911105D01*
X-1835348Y-2893523D01*
X-1844524Y-2883874D01*
X-1747431Y-2795333D01*
X-1493283Y-2628343D01*
X-1149048Y-2425909D01*
X-527932Y-2001912D01*
X118008Y-1435088D01*
X723713Y-792658D01*
X1224124Y-141839D01*
X1481666Y292147D01*
X1726164Y871298D01*
X1829988Y1386654D01*
X1838461Y1633355D01*
X1844280Y1994713D01*
X1886629Y2168996D01*
X1988903Y2210678D01*
X2080365Y2196559D01*
G36*
X635000Y2400506D02*
G01*
X-90138Y2010634D01*
X-758336Y1568159D01*
X-1447271Y968684D01*
X-2088296Y279998D01*
X-2612764Y-430113D01*
X-2691191Y-557841D01*
X-2936376Y-1011628D01*
X-3065468Y-1386293D01*
X-3111735Y-1792995D01*
X-3114524Y-1972282D01*
X-3126918Y-2348669D01*
X-3190099Y-2574607D01*
X-3343067Y-2663350D01*
X-3624823Y-2628153D01*
X-4074365Y-2482270D01*
X-4334311Y-2386824D01*
X-5155992Y-2011740D01*
X-5765593Y-1581239D01*
X-6156750Y-1105097D01*
X-6323099Y-593091D01*
X-6258274Y-54996D01*
X-6087703Y306514D01*
X-5661734Y801863D01*
X-5033237Y1254866D01*
X-4239907Y1651650D01*
X-3319440Y1978344D01*
X-2309530Y2221075D01*
X-1247874Y2365973D01*
X-393095Y2402141D01*
X635000Y2400506D01*
G37*
X635000Y2400506D02*
X-90138Y2010634D01*
X-758336Y1568159D01*
X-1447271Y968684D01*
X-2088296Y279998D01*
X-2612764Y-430113D01*
X-2691191Y-557841D01*
X-2936376Y-1011628D01*
X-3065468Y-1386293D01*
X-3111735Y-1792995D01*
X-3114524Y-1972282D01*
X-3126918Y-2348669D01*
X-3190099Y-2574607D01*
X-3343067Y-2663350D01*
X-3624823Y-2628153D01*
X-4074365Y-2482270D01*
X-4334311Y-2386824D01*
X-5155992Y-2011740D01*
X-5765593Y-1581239D01*
X-6156750Y-1105097D01*
X-6323099Y-593091D01*
X-6258274Y-54996D01*
X-6087703Y306514D01*
X-5661734Y801863D01*
X-5033237Y1254866D01*
X-4239907Y1651650D01*
X-3319440Y1978344D01*
X-2309530Y2221075D01*
X-1247874Y2365973D01*
X-393095Y2402141D01*
X635000Y2400506D01*
D12*
X24755000Y65000D02*
X24755000Y2015000D01*
X24755000Y65000D02*
X24755000Y-1885000D01*
X15885000Y65000D02*
X15885000Y2015000D01*
X15885000Y65000D02*
X15885000Y-3385000D01*
X-20395000Y-5731252D02*
X-20395000Y-5208748D01*
X-18975000Y-5731252D02*
X-18975000Y-5208748D01*
X-20395000Y5063748D02*
X-20395000Y5586252D01*
X-18975000Y5063748D02*
X-18975000Y5586252D01*
X-24660000Y-3815000D02*
X-24660000Y-4745000D01*
X-24660000Y-6975000D02*
X-24660000Y-6045000D01*
X-24660000Y-6975000D02*
X-22500000Y-6975000D01*
X-24660000Y-3815000D02*
X-23200000Y-3815000D01*
X-25120000Y6980000D02*
X-25120000Y6050000D01*
X-25120000Y3820000D02*
X-25120000Y4750000D01*
X-25120000Y3820000D02*
X-22960000Y3820000D01*
X-25120000Y6980000D02*
X-23660000Y6980000D01*
X-14970000Y-21300000D02*
X-12970000Y-21300000D01*
X-12970000Y-21300000D02*
X-12970000Y-17400000D01*
X-14970000Y-21300000D02*
X-14970000Y-17400000D01*
X-18780000Y-21300000D02*
X-16780000Y-21300000D01*
X-16780000Y-21300000D02*
X-16780000Y-17400000D01*
X-18780000Y-21300000D02*
X-18780000Y-17400000D01*
X17218922Y-6275000D02*
X17736078Y-6275000D01*
X17218922Y-7695000D02*
X17736078Y-7695000D01*
X-15240000Y-2540000D02*
X-15240000Y2540000D01*
X-17780000Y-2540000D02*
X-15240000Y-2540000D01*
X-17780000Y2540000D02*
X-17780000Y-2540000D01*
X-15240000Y2540000D02*
X-17780000Y2540000D01*
X-24050893Y12079000D02*
X-23915793Y12001000D01*
X-26056607Y13237000D02*
X-25921507Y13159000D01*
X-22750469Y14331726D02*
G75*
G02*
X-23791373Y12528501I-1455731J-361726D01*
G01*
X-24620802Y15411564D02*
G75*
G03*
X-25661988Y13608501I414602J-1441564D01*
G01*
X-22435930Y14878980D02*
G75*
G02*
X-23916212Y12001242I-1770270J-908980D01*
G01*
X-24304135Y15957589D02*
G75*
G03*
X-26056188Y13236758I97935J-1987589D01*
G01*
X-22490893Y-14781000D02*
X-22355793Y-14703000D01*
X-24496607Y-15939000D02*
X-24361507Y-15861000D01*
X-23791598Y-12528436D02*
G75*
G02*
X-22750412Y-14331499I-414602J-1441564D01*
G01*
X-25661931Y-13608274D02*
G75*
G03*
X-24621027Y-15411499I1455731J-361726D01*
G01*
X-24108265Y-11982411D02*
G75*
G02*
X-22356212Y-14703242I-97935J-1987589D01*
G01*
X-25976470Y-13061020D02*
G75*
G03*
X-24496188Y-15938758I1770270J-908980D01*
G01*
X1560000Y-26860000D02*
X1560000Y-26704000D01*
X1560000Y-29176000D02*
X1560000Y-29020000D01*
X-1041130Y-26860163D02*
G75*
G02*
X1040961Y-26860000I1041130J-1079837D01*
G01*
X-1041130Y-29019837D02*
G75*
G03*
X1040961Y-29020000I1041130J1079837D01*
G01*
X-1672335Y-26861392D02*
G75*
G02*
X1560000Y-26704484I1672335J-1078608D01*
G01*
X-1672335Y-29018608D02*
G75*
G03*
X1560000Y-29175516I1672335J1078608D01*
G01*
X24050893Y-12079000D02*
X23915793Y-12001000D01*
X26056607Y-13237000D02*
X25921507Y-13159000D01*
X22750469Y-14331726D02*
G75*
G02*
X23791373Y-12528501I1455731J361726D01*
G01*
X24620802Y-15411564D02*
G75*
G03*
X25661988Y-13608501I-414602J1441564D01*
G01*
X22435930Y-14878980D02*
G75*
G02*
X23916212Y-12001242I1770270J908980D01*
G01*
X24304135Y-15957589D02*
G75*
G03*
X26056188Y-13236758I-97935J1987589D01*
G01*
X22490893Y14781000D02*
X22355793Y14703000D01*
X24496607Y15939000D02*
X24361507Y15861000D01*
X23791598Y12528436D02*
G75*
G02*
X22750412Y14331499I414602J1441564D01*
G01*
X25661931Y13608274D02*
G75*
G03*
X24621027Y15411499I-1455731J361726D01*
G01*
X24108265Y11982411D02*
G75*
G02*
X22356212Y14703242I97935J1987589D01*
G01*
X25976470Y13061020D02*
G75*
G03*
X24496188Y15938758I-1770270J908980D01*
G01*
X-1551000Y26860000D02*
X-1551000Y26704000D01*
X-1551000Y29176000D02*
X-1551000Y29020000D01*
X1050130Y26860163D02*
G75*
G02*
X-1031961Y26860000I-1041130J1079837D01*
G01*
X1050130Y29019837D02*
G75*
G03*
X-1031961Y29020000I-1041130J-1079837D01*
G01*
X1681335Y26861392D02*
G75*
G02*
X-1551000Y26704484I-1672335J1078608D01*
G01*
X1681335Y29018608D02*
G75*
G03*
X-1551000Y29175516I-1672335J-1078608D01*
G01*
X31045000Y7620000D02*
G75*
G03*
X31045000Y7620000I-1200000J0D01*
G01*
X-8960000Y-26670000D02*
G75*
G03*
X-8960000Y-26670000I-1200000J0D01*
G01*
X-28010000Y10160000D02*
G75*
G03*
X-28010000Y10160000I-1200000J0D01*
G01*
D11*
X-10848890Y22095433D02*
X-11447940Y21706405D01*
X-11593686Y21668536D01*
X-11725429Y21696539D01*
X-11843172Y21790414D01*
X-11895042Y21870288D01*
X-11142921Y20712123D02*
X-11454144Y21191364D01*
X-11298533Y20951744D02*
X-10459862Y21496383D01*
X-10631542Y21498450D01*
X-10763286Y21526453D01*
X-10855093Y21580392D01*
D14*
D11*
X14492380Y-696904D02*
X15301904Y-696904D01*
X15397142Y-649285D01*
X15444761Y-601666D01*
X15492380Y-506428D01*
X15492380Y-315952D01*
X15444761Y-220714D01*
X15397142Y-173095D01*
X15301904Y-125476D01*
X14492380Y-125476D01*
X15492380Y874523D02*
X15492380Y303095D01*
X15492380Y588809D02*
X14492380Y588809D01*
X14635238Y493571D01*
X14730476Y398333D01*
X14778095Y303095D01*
X-19232619Y-2579666D02*
X-19708809Y-2913000D01*
X-19232619Y-3151095D02*
X-20232619Y-3151095D01*
X-20232619Y-2770142D01*
X-20185000Y-2674904D01*
X-20137380Y-2627285D01*
X-20042142Y-2579666D01*
X-19899285Y-2579666D01*
X-19804047Y-2627285D01*
X-19756428Y-2674904D01*
X-19708809Y-2770142D01*
X-19708809Y-3151095D01*
X-20137380Y-2198714D02*
X-20185000Y-2151095D01*
X-20232619Y-2055857D01*
X-20232619Y-1817761D01*
X-20185000Y-1722523D01*
X-20137380Y-1674904D01*
X-20042142Y-1627285D01*
X-19946904Y-1627285D01*
X-19804047Y-1674904D01*
X-19232619Y-2246333D01*
X-19232619Y-1627285D01*
X-19232619Y8088333D02*
X-19708809Y7755000D01*
X-19232619Y7516904D02*
X-20232619Y7516904D01*
X-20232619Y7897857D01*
X-20185000Y7993095D01*
X-20137380Y8040714D01*
X-20042142Y8088333D01*
X-19899285Y8088333D01*
X-19804047Y8040714D01*
X-19756428Y7993095D01*
X-19708809Y7897857D01*
X-19708809Y7516904D01*
X-19232619Y9040714D02*
X-19232619Y8469285D01*
X-19232619Y8755000D02*
X-20232619Y8755000D01*
X-20089761Y8659761D01*
X-19994523Y8564523D01*
X-19946904Y8469285D01*
X-25995380Y-5556238D02*
X-26043000Y-5651476D01*
X-26138238Y-5746714D01*
X-26281095Y-5889571D01*
X-26328714Y-5984809D01*
X-26328714Y-6080047D01*
X-26090619Y-6032428D02*
X-26138238Y-6127666D01*
X-26233476Y-6222904D01*
X-26423952Y-6270523D01*
X-26757285Y-6270523D01*
X-26947761Y-6222904D01*
X-27043000Y-6127666D01*
X-27090619Y-6032428D01*
X-27090619Y-5841952D01*
X-27043000Y-5746714D01*
X-26947761Y-5651476D01*
X-26757285Y-5603857D01*
X-26423952Y-5603857D01*
X-26233476Y-5651476D01*
X-26138238Y-5746714D01*
X-26090619Y-5841952D01*
X-26090619Y-6032428D01*
X-26995380Y-5222904D02*
X-27043000Y-5175285D01*
X-27090619Y-5080047D01*
X-27090619Y-4841952D01*
X-27043000Y-4746714D01*
X-26995380Y-4699095D01*
X-26900142Y-4651476D01*
X-26804904Y-4651476D01*
X-26662047Y-4699095D01*
X-26090619Y-5270523D01*
X-26090619Y-4651476D01*
X-26376380Y5365761D02*
X-26424000Y5270523D01*
X-26519238Y5175285D01*
X-26662095Y5032428D01*
X-26709714Y4937190D01*
X-26709714Y4841952D01*
X-26471619Y4889571D02*
X-26519238Y4794333D01*
X-26614476Y4699095D01*
X-26804952Y4651476D01*
X-27138285Y4651476D01*
X-27328761Y4699095D01*
X-27424000Y4794333D01*
X-27471619Y4889571D01*
X-27471619Y5080047D01*
X-27424000Y5175285D01*
X-27328761Y5270523D01*
X-27138285Y5318142D01*
X-26804952Y5318142D01*
X-26614476Y5270523D01*
X-26519238Y5175285D01*
X-26471619Y5080047D01*
X-26471619Y4889571D01*
X-26471619Y6270523D02*
X-26471619Y5699095D01*
X-26471619Y5984809D02*
X-27471619Y5984809D01*
X-27328761Y5889571D01*
X-27233523Y5794333D01*
X-27185904Y5699095D01*
X-11485619Y-19788095D02*
X-12485619Y-19788095D01*
X-12485619Y-19550000D01*
X-12438000Y-19407142D01*
X-12342761Y-19311904D01*
X-12247523Y-19264285D01*
X-12057047Y-19216666D01*
X-11914190Y-19216666D01*
X-11723714Y-19264285D01*
X-11628476Y-19311904D01*
X-11533238Y-19407142D01*
X-11485619Y-19550000D01*
X-11485619Y-19788095D01*
X-12390380Y-18835714D02*
X-12438000Y-18788095D01*
X-12485619Y-18692857D01*
X-12485619Y-18454761D01*
X-12438000Y-18359523D01*
X-12390380Y-18311904D01*
X-12295142Y-18264285D01*
X-12199904Y-18264285D01*
X-12057047Y-18311904D01*
X-11485619Y-18883333D01*
X-11485619Y-18264285D01*
X-19327619Y-19788095D02*
X-20327619Y-19788095D01*
X-20327619Y-19550000D01*
X-20280000Y-19407142D01*
X-20184761Y-19311904D01*
X-20089523Y-19264285D01*
X-19899047Y-19216666D01*
X-19756190Y-19216666D01*
X-19565714Y-19264285D01*
X-19470476Y-19311904D01*
X-19375238Y-19407142D01*
X-19327619Y-19550000D01*
X-19327619Y-19788095D01*
X-19327619Y-18264285D02*
X-19327619Y-18835714D01*
X-19327619Y-18550000D02*
X-20327619Y-18550000D01*
X-20184761Y-18645238D01*
X-20089523Y-18740476D01*
X-20041904Y-18835714D01*
X14468333Y-7342142D02*
X14420714Y-7389761D01*
X14277857Y-7437380D01*
X14182619Y-7437380D01*
X14039761Y-7389761D01*
X13944523Y-7294523D01*
X13896904Y-7199285D01*
X13849285Y-7008809D01*
X13849285Y-6865952D01*
X13896904Y-6675476D01*
X13944523Y-6580238D01*
X14039761Y-6485000D01*
X14182619Y-6437380D01*
X14277857Y-6437380D01*
X14420714Y-6485000D01*
X14468333Y-6532619D01*
X15420714Y-7437380D02*
X14849285Y-7437380D01*
X15135000Y-7437380D02*
X15135000Y-6437380D01*
X15039761Y-6580238D01*
X14944523Y-6675476D01*
X14849285Y-6723095D01*
X-17057619Y3357666D02*
X-16343333Y3357666D01*
X-16200476Y3310047D01*
X-16105238Y3214809D01*
X-16057619Y3071952D01*
X-16057619Y2976714D01*
X-16057619Y3833857D02*
X-17057619Y3833857D01*
X-17057619Y4214809D01*
X-17010000Y4310047D01*
X-16962380Y4357666D01*
X-16867142Y4405285D01*
X-16724285Y4405285D01*
X-16629047Y4357666D01*
X-16581428Y4310047D01*
X-16533809Y4214809D01*
X-16533809Y3833857D01*
X-16057619Y5357666D02*
X-16057619Y4786238D01*
X-16057619Y5071952D02*
X-17057619Y5071952D01*
X-16914761Y4976714D01*
X-16819523Y4881476D01*
X-16771904Y4786238D01*
X-22329274Y16406600D02*
X-23195299Y16906600D01*
X-23076252Y17112796D01*
X-22963584Y17212705D01*
X-22833486Y17247564D01*
X-22727198Y17241185D01*
X-22538431Y17187186D01*
X-22414713Y17115757D01*
X-22273565Y16979280D01*
X-22214896Y16890421D01*
X-22180037Y16760324D01*
X-22210226Y16612796D01*
X-22329274Y16406600D01*
X-22252717Y17682057D02*
X-22341575Y17623388D01*
X-22406624Y17605959D01*
X-22512912Y17612338D01*
X-22554151Y17636148D01*
X-22612821Y17725006D01*
X-22630250Y17790055D01*
X-22623871Y17896343D01*
X-22528632Y18061300D01*
X-22439774Y18119969D01*
X-22374725Y18137399D01*
X-22268437Y18131019D01*
X-22227198Y18107210D01*
X-22168529Y18018352D01*
X-22151099Y17953303D01*
X-22157479Y17847015D01*
X-22252717Y17682057D01*
X-22259097Y17575769D01*
X-22241667Y17510720D01*
X-22182998Y17421862D01*
X-22018040Y17326624D01*
X-21911752Y17320244D01*
X-21846704Y17337674D01*
X-21757845Y17396343D01*
X-21662607Y17561300D01*
X-21656227Y17667588D01*
X-21673657Y17732637D01*
X-21732326Y17821496D01*
X-21897283Y17916734D01*
X-22003572Y17923113D01*
X-22068620Y17905684D01*
X-22157479Y17847015D01*
X-26795821Y-10381981D02*
X-25929795Y-9881981D01*
X-25810747Y-10088177D01*
X-25780558Y-10235705D01*
X-25815418Y-10365802D01*
X-25874087Y-10454661D01*
X-26015235Y-10591138D01*
X-26138952Y-10662567D01*
X-26327719Y-10716565D01*
X-26434007Y-10722945D01*
X-26564105Y-10688086D01*
X-26676773Y-10588177D01*
X-26795821Y-10381981D01*
X-25477414Y-10665528D02*
X-25144081Y-11242878D01*
X-26224392Y-11371724D01*
X-4548095Y-28392380D02*
X-4548095Y-27392380D01*
X-4310000Y-27392380D01*
X-4167142Y-27440000D01*
X-4071904Y-27535238D01*
X-4024285Y-27630476D01*
X-3976666Y-27820952D01*
X-3976666Y-27963809D01*
X-4024285Y-28154285D01*
X-4071904Y-28249523D01*
X-4167142Y-28344761D01*
X-4310000Y-28392380D01*
X-4548095Y-28392380D01*
X-3119523Y-27392380D02*
X-3310000Y-27392380D01*
X-3405238Y-27440000D01*
X-3452857Y-27487619D01*
X-3548095Y-27630476D01*
X-3595714Y-27820952D01*
X-3595714Y-28201904D01*
X-3548095Y-28297142D01*
X-3500476Y-28344761D01*
X-3405238Y-28392380D01*
X-3214761Y-28392380D01*
X-3119523Y-28344761D01*
X-3071904Y-28297142D01*
X-3024285Y-28201904D01*
X-3024285Y-27963809D01*
X-3071904Y-27868571D01*
X-3119523Y-27820952D01*
X-3214761Y-27773333D01*
X-3405238Y-27773333D01*
X-3500476Y-27820952D01*
X-3548095Y-27868571D01*
X-3595714Y-27963809D01*
X22247724Y-18010399D02*
X21381699Y-17510399D01*
X21500746Y-17304203D01*
X21613414Y-17204294D01*
X21743512Y-17169435D01*
X21849800Y-17175814D01*
X22038567Y-17229813D01*
X22162285Y-17301242D01*
X22303433Y-17437719D01*
X22362102Y-17526578D01*
X22396961Y-17656675D01*
X22366772Y-17804203D01*
X22247724Y-18010399D01*
X22119794Y-16231981D02*
X21881699Y-16644374D01*
X22270282Y-16923708D01*
X22252853Y-16858660D01*
X22259232Y-16752371D01*
X22378280Y-16546175D01*
X22467138Y-16487506D01*
X22532187Y-16470076D01*
X22638475Y-16476456D01*
X22844672Y-16595503D01*
X22903341Y-16684362D01*
X22920771Y-16749411D01*
X22914391Y-16855699D01*
X22795343Y-17061895D01*
X22706485Y-17120564D01*
X22641436Y-17137994D01*
X25274178Y11208018D02*
X26140204Y11708018D01*
X26259252Y11501822D01*
X26289441Y11354294D01*
X26254581Y11224197D01*
X26195912Y11135338D01*
X26054764Y10998861D01*
X25931047Y10927432D01*
X25742280Y10873434D01*
X25635992Y10867054D01*
X25505894Y10901913D01*
X25393226Y11001822D01*
X25274178Y11208018D01*
X26565814Y10304172D02*
X25988464Y9970839D01*
X26776681Y10700845D02*
X26039044Y10549899D01*
X26348568Y10013788D01*
X2944904Y27487619D02*
X2944904Y28487619D01*
X3183000Y28487619D01*
X3325857Y28440000D01*
X3421095Y28344761D01*
X3468714Y28249523D01*
X3516333Y28059047D01*
X3516333Y27916190D01*
X3468714Y27725714D01*
X3421095Y27630476D01*
X3325857Y27535238D01*
X3183000Y27487619D01*
X2944904Y27487619D01*
X3849666Y28487619D02*
X4468714Y28487619D01*
X4135380Y28106666D01*
X4278238Y28106666D01*
X4373476Y28059047D01*
X4421095Y28011428D01*
X4468714Y27916190D01*
X4468714Y27678095D01*
X4421095Y27582857D01*
X4373476Y27535238D01*
X4278238Y27487619D01*
X3992523Y27487619D01*
X3897285Y27535238D01*
X3849666Y27582857D01*
X28583095Y10199619D02*
X29154523Y10199619D01*
X28868809Y9199619D02*
X28868809Y10199619D01*
X29487857Y9199619D02*
X29487857Y10199619D01*
X29868809Y10199619D01*
X29964047Y10152000D01*
X30011666Y10104380D01*
X30059285Y10009142D01*
X30059285Y9866285D01*
X30011666Y9771047D01*
X29964047Y9723428D01*
X29868809Y9675809D01*
X29487857Y9675809D01*
X30392619Y10199619D02*
X31011666Y10199619D01*
X30678333Y9818666D01*
X30821190Y9818666D01*
X30916428Y9771047D01*
X30964047Y9723428D01*
X31011666Y9628190D01*
X31011666Y9390095D01*
X30964047Y9294857D01*
X30916428Y9247238D01*
X30821190Y9199619D01*
X30535476Y9199619D01*
X30440238Y9247238D01*
X30392619Y9294857D01*
X-11421904Y-23963380D02*
X-10850476Y-23963380D01*
X-11136190Y-24963380D02*
X-11136190Y-23963380D01*
X-10517142Y-24963380D02*
X-10517142Y-23963380D01*
X-10136190Y-23963380D01*
X-10040952Y-24011000D01*
X-9993333Y-24058619D01*
X-9945714Y-24153857D01*
X-9945714Y-24296714D01*
X-9993333Y-24391952D01*
X-10040952Y-24439571D01*
X-10136190Y-24487190D01*
X-10517142Y-24487190D01*
X-9564761Y-24058619D02*
X-9517142Y-24011000D01*
X-9421904Y-23963380D01*
X-9183809Y-23963380D01*
X-9088571Y-24011000D01*
X-9040952Y-24058619D01*
X-8993333Y-24153857D01*
X-8993333Y-24249095D01*
X-9040952Y-24391952D01*
X-9612380Y-24963380D01*
X-8993333Y-24963380D01*
X-30471904Y12739619D02*
X-29900476Y12739619D01*
X-30186190Y11739619D02*
X-30186190Y12739619D01*
X-29567142Y11739619D02*
X-29567142Y12739619D01*
X-29186190Y12739619D01*
X-29090952Y12692000D01*
X-29043333Y12644380D01*
X-28995714Y12549142D01*
X-28995714Y12406285D01*
X-29043333Y12311047D01*
X-29090952Y12263428D01*
X-29186190Y12215809D01*
X-29567142Y12215809D01*
X-28043333Y11739619D02*
X-28614761Y11739619D01*
X-28329047Y11739619D02*
X-28329047Y12739619D01*
X-28424285Y12596761D01*
X-28519523Y12501523D01*
X-28614761Y12453904D01*
M02*
