G04 #@! TF.GenerationSoftware,KiCad,Pcbnew,(5.1.10)-1*
G04 #@! TF.CreationDate,2021-07-11T13:09:49-07:00*
G04 #@! TF.ProjectId,NightLight,4e696768-744c-4696-9768-742e6b696361,rev?*
G04 #@! TF.SameCoordinates,Original*
G04 #@! TF.FileFunction,Copper,L1,Top*
G04 #@! TF.FilePolarity,Positive*
%FSLAX46Y46*%
G04 Gerber Fmt 4.6, Leading zero omitted, Abs format (unit mm)*
G04 Created by KiCad (PCBNEW (5.1.10)-1) date 2021-07-11 13:09:49*
%MOMM*%
%LPD*%
G01*
G04 APERTURE LIST*
G04 #@! TA.AperFunction,ComponentPad*
%ADD10C,0.100000*%
G04 #@! TD*
G04 #@! TA.AperFunction,ComponentPad*
%ADD11C,6.400000*%
G04 #@! TD*
G04 #@! TA.AperFunction,SMDPad,CuDef*
%ADD12R,0.900000X0.800000*%
G04 #@! TD*
G04 #@! TA.AperFunction,SMDPad,CuDef*
%ADD13R,1.200000X0.900000*%
G04 #@! TD*
G04 #@! TA.AperFunction,ComponentPad*
%ADD14C,2.540000*%
G04 #@! TD*
G04 #@! TA.AperFunction,ComponentPad*
%ADD15R,2.540000X2.540000*%
G04 #@! TD*
G04 #@! TA.AperFunction,ComponentPad*
%ADD16C,1.701800*%
G04 #@! TD*
G04 #@! TA.AperFunction,ComponentPad*
%ADD17C,1.800000*%
G04 #@! TD*
G04 #@! TA.AperFunction,ComponentPad*
%ADD18R,1.800000X1.800000*%
G04 #@! TD*
G04 #@! TA.AperFunction,ComponentPad*
%ADD19C,2.000000*%
G04 #@! TD*
G04 #@! TA.AperFunction,ViaPad*
%ADD20C,1.422400*%
G04 #@! TD*
G04 #@! TA.AperFunction,ViaPad*
%ADD21C,0.939800*%
G04 #@! TD*
G04 #@! TA.AperFunction,Conductor*
%ADD22C,0.508000*%
G04 #@! TD*
G04 #@! TA.AperFunction,Conductor*
%ADD23C,0.203200*%
G04 #@! TD*
G04 APERTURE END LIST*
G04 #@! TA.AperFunction,ComponentPad*
G36*
G01*
X-13217417Y25203537D02*
X-13217417Y25203537D01*
G75*
G02*
X-14393230Y25453464I-462943J712870D01*
G01*
X-14393230Y25453464D01*
G75*
G02*
X-14143303Y26629277I712870J462943D01*
G01*
X-14143303Y26629277D01*
G75*
G02*
X-12967490Y26379350I462943J-712870D01*
G01*
X-12967490Y26379350D01*
G75*
G02*
X-13217417Y25203537I-712870J-462943D01*
G01*
G37*
G04 #@! TD.AperFunction*
G04 #@! TA.AperFunction,ComponentPad*
G36*
G01*
X-11834034Y23073313D02*
X-11834034Y23073313D01*
G75*
G02*
X-13009847Y23323240I-462943J712870D01*
G01*
X-13009847Y23323240D01*
G75*
G02*
X-12759920Y24499053I712870J462943D01*
G01*
X-12759920Y24499053D01*
G75*
G02*
X-11584107Y24249126I462943J-712870D01*
G01*
X-11584107Y24249126D01*
G75*
G02*
X-11834034Y23073313I-712870J-462943D01*
G01*
G37*
G04 #@! TD.AperFunction*
G04 #@! TA.AperFunction,ComponentPad*
G36*
G01*
X-15347640Y23820153D02*
X-15347640Y23820153D01*
G75*
G02*
X-16523453Y24070080I-462943J712870D01*
G01*
X-16523453Y24070080D01*
G75*
G02*
X-16273526Y25245893I712870J462943D01*
G01*
X-16273526Y25245893D01*
G75*
G02*
X-15097713Y24995966I462943J-712870D01*
G01*
X-15097713Y24995966D01*
G75*
G02*
X-15347640Y23820153I-712870J-462943D01*
G01*
G37*
G04 #@! TD.AperFunction*
G04 #@! TA.AperFunction,ComponentPad*
G36*
G01*
X-13964257Y21689930D02*
X-13964257Y21689930D01*
G75*
G02*
X-15140070Y21939857I-462943J712870D01*
G01*
X-15140070Y21939857D01*
G75*
G02*
X-14890143Y23115670I712870J462943D01*
G01*
X-14890143Y23115670D01*
G75*
G02*
X-13714330Y22865743I462943J-712870D01*
G01*
X-13714330Y22865743D01*
G75*
G02*
X-13964257Y21689930I-712870J-462943D01*
G01*
G37*
G04 #@! TD.AperFunction*
G04 #@! TA.AperFunction,ComponentPad*
G36*
G01*
X-17477863Y22436770D02*
X-17477863Y22436770D01*
G75*
G02*
X-18653676Y22686697I-462943J712870D01*
G01*
X-18653676Y22686697D01*
G75*
G02*
X-18403749Y23862510I712870J462943D01*
G01*
X-18403749Y23862510D01*
G75*
G02*
X-17227936Y23612583I462943J-712870D01*
G01*
X-17227936Y23612583D01*
G75*
G02*
X-17477863Y22436770I-712870J-462943D01*
G01*
G37*
G04 #@! TD.AperFunction*
G04 #@! TA.AperFunction,ComponentPad*
D10*
G36*
X-15381610Y20769490D02*
G01*
X-16807350Y19843604D01*
X-17733236Y21269344D01*
X-16307496Y22195230D01*
X-15381610Y20769490D01*
G37*
G04 #@! TD.AperFunction*
D11*
X14655800Y-25298400D03*
X-29210000Y0D03*
X14655800Y25298400D03*
G04 #@! TA.AperFunction,SMDPad,CuDef*
G36*
G01*
X16660000Y1565000D02*
X16360000Y1565000D01*
G75*
G02*
X16210000Y1715000I0J150000D01*
G01*
X16210000Y3365000D01*
G75*
G02*
X16360000Y3515000I150000J0D01*
G01*
X16660000Y3515000D01*
G75*
G02*
X16810000Y3365000I0J-150000D01*
G01*
X16810000Y1715000D01*
G75*
G02*
X16660000Y1565000I-150000J0D01*
G01*
G37*
G04 #@! TD.AperFunction*
G04 #@! TA.AperFunction,SMDPad,CuDef*
G36*
G01*
X17930000Y1565000D02*
X17630000Y1565000D01*
G75*
G02*
X17480000Y1715000I0J150000D01*
G01*
X17480000Y3365000D01*
G75*
G02*
X17630000Y3515000I150000J0D01*
G01*
X17930000Y3515000D01*
G75*
G02*
X18080000Y3365000I0J-150000D01*
G01*
X18080000Y1715000D01*
G75*
G02*
X17930000Y1565000I-150000J0D01*
G01*
G37*
G04 #@! TD.AperFunction*
G04 #@! TA.AperFunction,SMDPad,CuDef*
G36*
G01*
X19200000Y1565000D02*
X18900000Y1565000D01*
G75*
G02*
X18750000Y1715000I0J150000D01*
G01*
X18750000Y3365000D01*
G75*
G02*
X18900000Y3515000I150000J0D01*
G01*
X19200000Y3515000D01*
G75*
G02*
X19350000Y3365000I0J-150000D01*
G01*
X19350000Y1715000D01*
G75*
G02*
X19200000Y1565000I-150000J0D01*
G01*
G37*
G04 #@! TD.AperFunction*
G04 #@! TA.AperFunction,SMDPad,CuDef*
G36*
G01*
X20470000Y1565000D02*
X20170000Y1565000D01*
G75*
G02*
X20020000Y1715000I0J150000D01*
G01*
X20020000Y3365000D01*
G75*
G02*
X20170000Y3515000I150000J0D01*
G01*
X20470000Y3515000D01*
G75*
G02*
X20620000Y3365000I0J-150000D01*
G01*
X20620000Y1715000D01*
G75*
G02*
X20470000Y1565000I-150000J0D01*
G01*
G37*
G04 #@! TD.AperFunction*
G04 #@! TA.AperFunction,SMDPad,CuDef*
G36*
G01*
X21740000Y1565000D02*
X21440000Y1565000D01*
G75*
G02*
X21290000Y1715000I0J150000D01*
G01*
X21290000Y3365000D01*
G75*
G02*
X21440000Y3515000I150000J0D01*
G01*
X21740000Y3515000D01*
G75*
G02*
X21890000Y3365000I0J-150000D01*
G01*
X21890000Y1715000D01*
G75*
G02*
X21740000Y1565000I-150000J0D01*
G01*
G37*
G04 #@! TD.AperFunction*
G04 #@! TA.AperFunction,SMDPad,CuDef*
G36*
G01*
X23010000Y1565000D02*
X22710000Y1565000D01*
G75*
G02*
X22560000Y1715000I0J150000D01*
G01*
X22560000Y3365000D01*
G75*
G02*
X22710000Y3515000I150000J0D01*
G01*
X23010000Y3515000D01*
G75*
G02*
X23160000Y3365000I0J-150000D01*
G01*
X23160000Y1715000D01*
G75*
G02*
X23010000Y1565000I-150000J0D01*
G01*
G37*
G04 #@! TD.AperFunction*
G04 #@! TA.AperFunction,SMDPad,CuDef*
G36*
G01*
X24280000Y1565000D02*
X23980000Y1565000D01*
G75*
G02*
X23830000Y1715000I0J150000D01*
G01*
X23830000Y3365000D01*
G75*
G02*
X23980000Y3515000I150000J0D01*
G01*
X24280000Y3515000D01*
G75*
G02*
X24430000Y3365000I0J-150000D01*
G01*
X24430000Y1715000D01*
G75*
G02*
X24280000Y1565000I-150000J0D01*
G01*
G37*
G04 #@! TD.AperFunction*
G04 #@! TA.AperFunction,SMDPad,CuDef*
G36*
G01*
X24280000Y-3385000D02*
X23980000Y-3385000D01*
G75*
G02*
X23830000Y-3235000I0J150000D01*
G01*
X23830000Y-1585000D01*
G75*
G02*
X23980000Y-1435000I150000J0D01*
G01*
X24280000Y-1435000D01*
G75*
G02*
X24430000Y-1585000I0J-150000D01*
G01*
X24430000Y-3235000D01*
G75*
G02*
X24280000Y-3385000I-150000J0D01*
G01*
G37*
G04 #@! TD.AperFunction*
G04 #@! TA.AperFunction,SMDPad,CuDef*
G36*
G01*
X23010000Y-3385000D02*
X22710000Y-3385000D01*
G75*
G02*
X22560000Y-3235000I0J150000D01*
G01*
X22560000Y-1585000D01*
G75*
G02*
X22710000Y-1435000I150000J0D01*
G01*
X23010000Y-1435000D01*
G75*
G02*
X23160000Y-1585000I0J-150000D01*
G01*
X23160000Y-3235000D01*
G75*
G02*
X23010000Y-3385000I-150000J0D01*
G01*
G37*
G04 #@! TD.AperFunction*
G04 #@! TA.AperFunction,SMDPad,CuDef*
G36*
G01*
X21740000Y-3385000D02*
X21440000Y-3385000D01*
G75*
G02*
X21290000Y-3235000I0J150000D01*
G01*
X21290000Y-1585000D01*
G75*
G02*
X21440000Y-1435000I150000J0D01*
G01*
X21740000Y-1435000D01*
G75*
G02*
X21890000Y-1585000I0J-150000D01*
G01*
X21890000Y-3235000D01*
G75*
G02*
X21740000Y-3385000I-150000J0D01*
G01*
G37*
G04 #@! TD.AperFunction*
G04 #@! TA.AperFunction,SMDPad,CuDef*
G36*
G01*
X20470000Y-3385000D02*
X20170000Y-3385000D01*
G75*
G02*
X20020000Y-3235000I0J150000D01*
G01*
X20020000Y-1585000D01*
G75*
G02*
X20170000Y-1435000I150000J0D01*
G01*
X20470000Y-1435000D01*
G75*
G02*
X20620000Y-1585000I0J-150000D01*
G01*
X20620000Y-3235000D01*
G75*
G02*
X20470000Y-3385000I-150000J0D01*
G01*
G37*
G04 #@! TD.AperFunction*
G04 #@! TA.AperFunction,SMDPad,CuDef*
G36*
G01*
X19200000Y-3385000D02*
X18900000Y-3385000D01*
G75*
G02*
X18750000Y-3235000I0J150000D01*
G01*
X18750000Y-1585000D01*
G75*
G02*
X18900000Y-1435000I150000J0D01*
G01*
X19200000Y-1435000D01*
G75*
G02*
X19350000Y-1585000I0J-150000D01*
G01*
X19350000Y-3235000D01*
G75*
G02*
X19200000Y-3385000I-150000J0D01*
G01*
G37*
G04 #@! TD.AperFunction*
G04 #@! TA.AperFunction,SMDPad,CuDef*
G36*
G01*
X17930000Y-3385000D02*
X17630000Y-3385000D01*
G75*
G02*
X17480000Y-3235000I0J150000D01*
G01*
X17480000Y-1585000D01*
G75*
G02*
X17630000Y-1435000I150000J0D01*
G01*
X17930000Y-1435000D01*
G75*
G02*
X18080000Y-1585000I0J-150000D01*
G01*
X18080000Y-3235000D01*
G75*
G02*
X17930000Y-3385000I-150000J0D01*
G01*
G37*
G04 #@! TD.AperFunction*
G04 #@! TA.AperFunction,SMDPad,CuDef*
G36*
G01*
X16660000Y-3385000D02*
X16360000Y-3385000D01*
G75*
G02*
X16210000Y-3235000I0J150000D01*
G01*
X16210000Y-1585000D01*
G75*
G02*
X16360000Y-1435000I150000J0D01*
G01*
X16660000Y-1435000D01*
G75*
G02*
X16810000Y-1585000I0J-150000D01*
G01*
X16810000Y-3235000D01*
G75*
G02*
X16660000Y-3385000I-150000J0D01*
G01*
G37*
G04 #@! TD.AperFunction*
G04 #@! TA.AperFunction,SMDPad,CuDef*
G36*
G01*
X-19234999Y-5020000D02*
X-20135001Y-5020000D01*
G75*
G02*
X-20385000Y-4770001I0J249999D01*
G01*
X-20385000Y-4119999D01*
G75*
G02*
X-20135001Y-3870000I249999J0D01*
G01*
X-19234999Y-3870000D01*
G75*
G02*
X-18985000Y-4119999I0J-249999D01*
G01*
X-18985000Y-4770001D01*
G75*
G02*
X-19234999Y-5020000I-249999J0D01*
G01*
G37*
G04 #@! TD.AperFunction*
G04 #@! TA.AperFunction,SMDPad,CuDef*
G36*
G01*
X-19234999Y-7070000D02*
X-20135001Y-7070000D01*
G75*
G02*
X-20385000Y-6820001I0J249999D01*
G01*
X-20385000Y-6169999D01*
G75*
G02*
X-20135001Y-5920000I249999J0D01*
G01*
X-19234999Y-5920000D01*
G75*
G02*
X-18985000Y-6169999I0J-249999D01*
G01*
X-18985000Y-6820001D01*
G75*
G02*
X-19234999Y-7070000I-249999J0D01*
G01*
G37*
G04 #@! TD.AperFunction*
G04 #@! TA.AperFunction,SMDPad,CuDef*
G36*
G01*
X-19234999Y5775000D02*
X-20135001Y5775000D01*
G75*
G02*
X-20385000Y6024999I0J249999D01*
G01*
X-20385000Y6675001D01*
G75*
G02*
X-20135001Y6925000I249999J0D01*
G01*
X-19234999Y6925000D01*
G75*
G02*
X-18985000Y6675001I0J-249999D01*
G01*
X-18985000Y6024999D01*
G75*
G02*
X-19234999Y5775000I-249999J0D01*
G01*
G37*
G04 #@! TD.AperFunction*
G04 #@! TA.AperFunction,SMDPad,CuDef*
G36*
G01*
X-19234999Y3725000D02*
X-20135001Y3725000D01*
G75*
G02*
X-20385000Y3974999I0J249999D01*
G01*
X-20385000Y4625001D01*
G75*
G02*
X-20135001Y4875000I249999J0D01*
G01*
X-19234999Y4875000D01*
G75*
G02*
X-18985000Y4625001I0J-249999D01*
G01*
X-18985000Y3974999D01*
G75*
G02*
X-19234999Y3725000I-249999J0D01*
G01*
G37*
G04 #@! TD.AperFunction*
D12*
X-24900000Y-5395000D03*
X-22900000Y-4445000D03*
X-22900000Y-6345000D03*
X-25360000Y5400000D03*
X-23360000Y6350000D03*
X-23360000Y4450000D03*
D13*
X-13970000Y-17400000D03*
X-13970000Y-20700000D03*
X-17780000Y-17400000D03*
X-17780000Y-20700000D03*
G04 #@! TA.AperFunction,SMDPad,CuDef*
G36*
G01*
X17927500Y-7441250D02*
X17927500Y-6528750D01*
G75*
G02*
X18171250Y-6285000I243750J0D01*
G01*
X18658750Y-6285000D01*
G75*
G02*
X18902500Y-6528750I0J-243750D01*
G01*
X18902500Y-7441250D01*
G75*
G02*
X18658750Y-7685000I-243750J0D01*
G01*
X18171250Y-7685000D01*
G75*
G02*
X17927500Y-7441250I0J243750D01*
G01*
G37*
G04 #@! TD.AperFunction*
G04 #@! TA.AperFunction,SMDPad,CuDef*
G36*
G01*
X16052500Y-7441250D02*
X16052500Y-6528750D01*
G75*
G02*
X16296250Y-6285000I243750J0D01*
G01*
X16783750Y-6285000D01*
G75*
G02*
X17027500Y-6528750I0J-243750D01*
G01*
X17027500Y-7441250D01*
G75*
G02*
X16783750Y-7685000I-243750J0D01*
G01*
X16296250Y-7685000D01*
G75*
G02*
X16052500Y-7441250I0J243750D01*
G01*
G37*
G04 #@! TD.AperFunction*
D14*
X7554000Y0D03*
D15*
X-12446000Y0D03*
D16*
X-16510000Y1270000D03*
X-16510000Y-1270000D03*
D17*
X-23571200Y15069852D03*
G04 #@! TA.AperFunction,ComponentPad*
D10*
G36*
X-24511777Y11640725D02*
G01*
X-26070623Y12540725D01*
X-25170623Y14099571D01*
X-23611777Y13199571D01*
X-24511777Y11640725D01*
G37*
G04 #@! TD.AperFunction*
D17*
X-24841200Y-12870148D03*
G04 #@! TA.AperFunction,ComponentPad*
D10*
G36*
X-22341777Y-15399275D02*
G01*
X-23900623Y-16299275D01*
X-24800623Y-14740429D01*
X-23241777Y-13840429D01*
X-22341777Y-15399275D01*
G37*
G04 #@! TD.AperFunction*
D17*
X-1270000Y-27940000D03*
D18*
X1270000Y-27940000D03*
D17*
X23571200Y-15069852D03*
G04 #@! TA.AperFunction,ComponentPad*
D10*
G36*
X24511777Y-11640725D02*
G01*
X26070623Y-12540725D01*
X25170623Y-14099571D01*
X23611777Y-13199571D01*
X24511777Y-11640725D01*
G37*
G04 #@! TD.AperFunction*
D17*
X24841200Y12870148D03*
G04 #@! TA.AperFunction,ComponentPad*
D10*
G36*
X22341777Y15399275D02*
G01*
X23900623Y16299275D01*
X24800623Y14740429D01*
X23241777Y13840429D01*
X22341777Y15399275D01*
G37*
G04 #@! TD.AperFunction*
D17*
X1279000Y27940000D03*
D18*
X-1261000Y27940000D03*
D19*
X29845000Y7620000D03*
X-10160000Y-26670000D03*
X-29210000Y10160000D03*
X3248800Y18084800D03*
X3248800Y22584800D03*
X-3251200Y18084800D03*
X-3251200Y22584800D03*
X3248800Y-22580600D03*
X3248800Y-18080600D03*
X-3251200Y-22580600D03*
X-3251200Y-18080600D03*
D20*
X20955000Y-6985000D03*
D21*
X-22860000Y-2540000D03*
D20*
X16510000Y5080000D03*
D21*
X19050000Y889000D03*
X15367000Y-4445000D03*
X22860000Y7620000D03*
X13335000Y7620000D03*
D22*
X18415000Y-6985000D02*
X20955000Y-6985000D01*
D23*
X-22900000Y-4445000D02*
X-19685000Y-4445000D01*
X-22900000Y-4445000D02*
X-22900000Y-2580000D01*
X-22900000Y-2580000D02*
X-22860000Y-2540000D01*
D22*
X16510000Y2540000D02*
X16510000Y5080000D01*
D23*
X-19835000Y4450000D02*
X-19685000Y4300000D01*
X-23360000Y4450000D02*
X-19835000Y4450000D01*
X-24900000Y-5395000D02*
X-24900000Y-7485000D01*
X-17780000Y-14605000D02*
X-17780000Y-17400000D01*
X-24900000Y-7485000D02*
X-17780000Y-14605000D01*
X-24900000Y-2548000D02*
X-24900000Y-5395000D01*
X-23360000Y4450000D02*
X-23360000Y-1008000D01*
X-23360000Y-1008000D02*
X-24900000Y-2548000D01*
D22*
X-15367000Y-1270000D02*
X-16510000Y-1270000D01*
X-12446000Y0D02*
X-14097000Y0D01*
X-14097000Y0D02*
X-15367000Y-1270000D01*
X16510000Y-6955000D02*
X16540000Y-6985000D01*
X16510000Y-2475000D02*
X16510000Y-6955000D01*
X16510000Y-2410000D02*
X12830000Y-2410000D01*
X-505000Y-2410000D02*
X12830000Y-2410000D01*
X-11170000Y8255000D02*
X-505000Y-2410000D01*
X-25360000Y5400000D02*
X-25360000Y8215000D01*
X-25360000Y8215000D02*
X-25400000Y8255000D01*
X-25400000Y8255000D02*
X-11170000Y8255000D01*
X-27305000Y8255000D02*
X-25400000Y8255000D01*
X-29210000Y10160000D02*
X-27305000Y8255000D01*
X-19395360Y23149640D02*
X-17940806Y23149640D01*
X-29210000Y13335000D02*
X-19395360Y23149640D01*
X-29210000Y10160000D02*
X-29210000Y13335000D01*
D23*
X-3251200Y-22580600D02*
X3248800Y-22580600D01*
X-17780000Y-20700000D02*
X-13970000Y-20700000D01*
X-13970000Y-20700000D02*
X-9780000Y-20700000D01*
X-7899400Y-22580600D02*
X-3251200Y-22580600D01*
X-9780000Y-20700000D02*
X-7899400Y-22580600D01*
X-13335000Y-15240000D02*
X-13970000Y-15875000D01*
X-13970000Y-15875000D02*
X-13970000Y-17400000D01*
X22225000Y-5715000D02*
X22225000Y-10160000D01*
X20955000Y-4445000D02*
X22225000Y-5715000D01*
X22225000Y-10160000D02*
X17145000Y-15240000D01*
X19685000Y-4445000D02*
X20955000Y-4445000D01*
X19050000Y-3810000D02*
X19685000Y-4445000D01*
X17145000Y-15240000D02*
X-13335000Y-15240000D01*
X19050000Y-2410000D02*
X19050000Y-3810000D01*
D22*
X-23360000Y6350000D02*
X-19685000Y6350000D01*
X-19685000Y6350000D02*
X-17145000Y6350000D01*
X-16510000Y5715000D02*
X-16510000Y1270000D01*
X-17145000Y6350000D02*
X-16510000Y5715000D01*
D23*
X-19835000Y-6345000D02*
X-19685000Y-6495000D01*
X-22900000Y-6345000D02*
X-19835000Y-6345000D01*
X19050000Y2540000D02*
X19050000Y889000D01*
X-635000Y-4445000D02*
X15367000Y-4445000D01*
X-19685000Y-6495000D02*
X-2685000Y-6495000D01*
X-2685000Y-6495000D02*
X-635000Y-4445000D01*
X-8890000Y20320000D02*
X-12296977Y23726977D01*
X8890000Y20320000D02*
X-8890000Y20320000D01*
X-12296977Y23726977D02*
X-12296977Y23786183D01*
X14605000Y14605000D02*
X8890000Y20320000D01*
X14605000Y635000D02*
X14605000Y14605000D01*
X15240000Y0D02*
X14605000Y635000D01*
X17780000Y-635000D02*
X17145000Y0D01*
X19685000Y-635000D02*
X17780000Y-635000D01*
X20320000Y-1270000D02*
X19685000Y-635000D01*
X17145000Y0D02*
X15240000Y0D01*
X20320000Y-2410000D02*
X20320000Y-1270000D01*
X24130000Y-1270000D02*
X24130000Y-2410000D01*
X23495000Y-635000D02*
X24130000Y-1270000D01*
X-15810583Y24533023D02*
X-15810583Y26734417D01*
X-15810583Y26734417D02*
X-13970000Y27940000D01*
X9525000Y20955000D02*
X15240000Y15240000D01*
X15240000Y1270000D02*
X15875000Y635000D01*
X15875000Y635000D02*
X17145000Y635000D01*
X-13970000Y27940000D02*
X-12700000Y27940000D01*
X-12700000Y27940000D02*
X-5715000Y20955000D01*
X-5715000Y20955000D02*
X9525000Y20955000D01*
X15240000Y15240000D02*
X15240000Y1270000D01*
X19685000Y0D02*
X20320000Y-635000D01*
X17145000Y635000D02*
X17780000Y0D01*
X17780000Y0D02*
X19685000Y0D01*
X20320000Y-635000D02*
X23495000Y-635000D01*
X22860000Y7620000D02*
X22860000Y2540000D01*
X13335000Y7620000D02*
X13335000Y13970000D01*
X13335000Y13970000D02*
X11430000Y15875000D01*
X-7899400Y15875000D02*
X-14427200Y22402800D01*
X11430000Y15875000D02*
X-7899400Y15875000D01*
X-3251200Y22584800D02*
X3248800Y22584800D01*
X24130000Y2540000D02*
X24130000Y8890000D01*
X-3251200Y29768800D02*
X-3251200Y22584800D01*
X-2540000Y30480000D02*
X-3251200Y29768800D01*
X2540000Y30480000D02*
X-2540000Y30480000D01*
X24130000Y8890000D02*
X2540000Y30480000D01*
X-3327400Y28575000D02*
X-3251200Y28498800D01*
X-14224000Y28575000D02*
X-3327400Y28575000D01*
X-17248885Y26566115D02*
X-14224000Y28575000D01*
X-17248885Y24437085D02*
X-17248885Y26566115D01*
X-16557423Y23339223D02*
X-17248885Y24437085D01*
X-16557423Y21019417D02*
X-16557423Y23339223D01*
X17780000Y13970000D02*
X17780000Y2540000D01*
X3810000Y27940000D02*
X17780000Y13970000D01*
X1279000Y27940000D02*
X3810000Y27940000D01*
X26035000Y11676348D02*
X24841200Y12870148D01*
X21590000Y1270000D02*
X22225000Y635000D01*
X22225000Y635000D02*
X25400000Y635000D01*
X21590000Y2540000D02*
X21590000Y1270000D01*
X25400000Y635000D02*
X26035000Y1270000D01*
X26035000Y1270000D02*
X26035000Y11676348D01*
X22860000Y-4445000D02*
X22860000Y-2410000D01*
X22479000Y-13977652D02*
X22479000Y-11811000D01*
X23571200Y-15069852D02*
X22479000Y-13977652D01*
X22479000Y-11811000D02*
X23495000Y-10795000D01*
X23495000Y-10795000D02*
X23495000Y-5080000D01*
X23495000Y-5080000D02*
X22860000Y-4445000D01*
X21590000Y-4445000D02*
X21590000Y-2410000D01*
X22860000Y-5715000D02*
X21590000Y-4445000D01*
X22860000Y-10770957D02*
X22860000Y-5715000D01*
X17577478Y-16053478D02*
X22860000Y-10770957D01*
X-1270000Y-26543000D02*
X-762000Y-26035000D01*
X3556000Y-26035000D02*
X13537522Y-16053478D01*
X13537522Y-16053478D02*
X17577478Y-16053478D01*
X-1270000Y-27940000D02*
X-1270000Y-26543000D01*
X-762000Y-26035000D02*
X3556000Y-26035000D01*
X-25306052Y-13335000D02*
X-24841200Y-12870148D01*
X-26035000Y-16510000D02*
X-26035000Y-14063948D01*
X3048000Y-30099000D02*
X-12446000Y-30099000D01*
X16002000Y-17145000D02*
X3048000Y-30099000D01*
X25336500Y-17145000D02*
X16002000Y-17145000D01*
X27178000Y-15303500D02*
X25336500Y-17145000D01*
X-12446000Y-30099000D02*
X-26035000Y-16510000D01*
X27178000Y-3302000D02*
X27178000Y-15303500D01*
X20955000Y0D02*
X23876000Y0D01*
X23876000Y0D02*
X27178000Y-3302000D01*
X20320000Y635000D02*
X20955000Y0D01*
X-26035000Y-14063948D02*
X-24841200Y-12870148D01*
X20320000Y2540000D02*
X20320000Y635000D01*
X-16339852Y15069852D02*
X-23571200Y15069852D01*
X-4445000Y3175000D02*
X-16339852Y15069852D01*
X12065000Y-635000D02*
X8255000Y3175000D01*
X17145000Y-635000D02*
X12065000Y-635000D01*
X8255000Y3175000D02*
X-4445000Y3175000D01*
X17780000Y-1270000D02*
X17145000Y-635000D01*
X17780000Y-2410000D02*
X17780000Y-1270000D01*
M02*
