G04 #@! TF.GenerationSoftware,KiCad,Pcbnew,(5.1.10)-1*
G04 #@! TF.CreationDate,2021-07-11T13:09:49-07:00*
G04 #@! TF.ProjectId,NightLight,4e696768-744c-4696-9768-742e6b696361,rev?*
G04 #@! TF.SameCoordinates,Original*
G04 #@! TF.FileFunction,Paste,Top*
G04 #@! TF.FilePolarity,Positive*
%FSLAX46Y46*%
G04 Gerber Fmt 4.6, Leading zero omitted, Abs format (unit mm)*
G04 Created by KiCad (PCBNEW (5.1.10)-1) date 2021-07-11 13:09:49*
%MOMM*%
%LPD*%
G01*
G04 APERTURE LIST*
%ADD10R,0.900000X0.800000*%
%ADD11R,1.200000X0.900000*%
G04 APERTURE END LIST*
G36*
G01*
X16660000Y1565000D02*
X16360000Y1565000D01*
G75*
G02*
X16210000Y1715000I0J150000D01*
G01*
X16210000Y3365000D01*
G75*
G02*
X16360000Y3515000I150000J0D01*
G01*
X16660000Y3515000D01*
G75*
G02*
X16810000Y3365000I0J-150000D01*
G01*
X16810000Y1715000D01*
G75*
G02*
X16660000Y1565000I-150000J0D01*
G01*
G37*
G36*
G01*
X17930000Y1565000D02*
X17630000Y1565000D01*
G75*
G02*
X17480000Y1715000I0J150000D01*
G01*
X17480000Y3365000D01*
G75*
G02*
X17630000Y3515000I150000J0D01*
G01*
X17930000Y3515000D01*
G75*
G02*
X18080000Y3365000I0J-150000D01*
G01*
X18080000Y1715000D01*
G75*
G02*
X17930000Y1565000I-150000J0D01*
G01*
G37*
G36*
G01*
X19200000Y1565000D02*
X18900000Y1565000D01*
G75*
G02*
X18750000Y1715000I0J150000D01*
G01*
X18750000Y3365000D01*
G75*
G02*
X18900000Y3515000I150000J0D01*
G01*
X19200000Y3515000D01*
G75*
G02*
X19350000Y3365000I0J-150000D01*
G01*
X19350000Y1715000D01*
G75*
G02*
X19200000Y1565000I-150000J0D01*
G01*
G37*
G36*
G01*
X20470000Y1565000D02*
X20170000Y1565000D01*
G75*
G02*
X20020000Y1715000I0J150000D01*
G01*
X20020000Y3365000D01*
G75*
G02*
X20170000Y3515000I150000J0D01*
G01*
X20470000Y3515000D01*
G75*
G02*
X20620000Y3365000I0J-150000D01*
G01*
X20620000Y1715000D01*
G75*
G02*
X20470000Y1565000I-150000J0D01*
G01*
G37*
G36*
G01*
X21740000Y1565000D02*
X21440000Y1565000D01*
G75*
G02*
X21290000Y1715000I0J150000D01*
G01*
X21290000Y3365000D01*
G75*
G02*
X21440000Y3515000I150000J0D01*
G01*
X21740000Y3515000D01*
G75*
G02*
X21890000Y3365000I0J-150000D01*
G01*
X21890000Y1715000D01*
G75*
G02*
X21740000Y1565000I-150000J0D01*
G01*
G37*
G36*
G01*
X23010000Y1565000D02*
X22710000Y1565000D01*
G75*
G02*
X22560000Y1715000I0J150000D01*
G01*
X22560000Y3365000D01*
G75*
G02*
X22710000Y3515000I150000J0D01*
G01*
X23010000Y3515000D01*
G75*
G02*
X23160000Y3365000I0J-150000D01*
G01*
X23160000Y1715000D01*
G75*
G02*
X23010000Y1565000I-150000J0D01*
G01*
G37*
G36*
G01*
X24280000Y1565000D02*
X23980000Y1565000D01*
G75*
G02*
X23830000Y1715000I0J150000D01*
G01*
X23830000Y3365000D01*
G75*
G02*
X23980000Y3515000I150000J0D01*
G01*
X24280000Y3515000D01*
G75*
G02*
X24430000Y3365000I0J-150000D01*
G01*
X24430000Y1715000D01*
G75*
G02*
X24280000Y1565000I-150000J0D01*
G01*
G37*
G36*
G01*
X24280000Y-3385000D02*
X23980000Y-3385000D01*
G75*
G02*
X23830000Y-3235000I0J150000D01*
G01*
X23830000Y-1585000D01*
G75*
G02*
X23980000Y-1435000I150000J0D01*
G01*
X24280000Y-1435000D01*
G75*
G02*
X24430000Y-1585000I0J-150000D01*
G01*
X24430000Y-3235000D01*
G75*
G02*
X24280000Y-3385000I-150000J0D01*
G01*
G37*
G36*
G01*
X23010000Y-3385000D02*
X22710000Y-3385000D01*
G75*
G02*
X22560000Y-3235000I0J150000D01*
G01*
X22560000Y-1585000D01*
G75*
G02*
X22710000Y-1435000I150000J0D01*
G01*
X23010000Y-1435000D01*
G75*
G02*
X23160000Y-1585000I0J-150000D01*
G01*
X23160000Y-3235000D01*
G75*
G02*
X23010000Y-3385000I-150000J0D01*
G01*
G37*
G36*
G01*
X21740000Y-3385000D02*
X21440000Y-3385000D01*
G75*
G02*
X21290000Y-3235000I0J150000D01*
G01*
X21290000Y-1585000D01*
G75*
G02*
X21440000Y-1435000I150000J0D01*
G01*
X21740000Y-1435000D01*
G75*
G02*
X21890000Y-1585000I0J-150000D01*
G01*
X21890000Y-3235000D01*
G75*
G02*
X21740000Y-3385000I-150000J0D01*
G01*
G37*
G36*
G01*
X20470000Y-3385000D02*
X20170000Y-3385000D01*
G75*
G02*
X20020000Y-3235000I0J150000D01*
G01*
X20020000Y-1585000D01*
G75*
G02*
X20170000Y-1435000I150000J0D01*
G01*
X20470000Y-1435000D01*
G75*
G02*
X20620000Y-1585000I0J-150000D01*
G01*
X20620000Y-3235000D01*
G75*
G02*
X20470000Y-3385000I-150000J0D01*
G01*
G37*
G36*
G01*
X19200000Y-3385000D02*
X18900000Y-3385000D01*
G75*
G02*
X18750000Y-3235000I0J150000D01*
G01*
X18750000Y-1585000D01*
G75*
G02*
X18900000Y-1435000I150000J0D01*
G01*
X19200000Y-1435000D01*
G75*
G02*
X19350000Y-1585000I0J-150000D01*
G01*
X19350000Y-3235000D01*
G75*
G02*
X19200000Y-3385000I-150000J0D01*
G01*
G37*
G36*
G01*
X17930000Y-3385000D02*
X17630000Y-3385000D01*
G75*
G02*
X17480000Y-3235000I0J150000D01*
G01*
X17480000Y-1585000D01*
G75*
G02*
X17630000Y-1435000I150000J0D01*
G01*
X17930000Y-1435000D01*
G75*
G02*
X18080000Y-1585000I0J-150000D01*
G01*
X18080000Y-3235000D01*
G75*
G02*
X17930000Y-3385000I-150000J0D01*
G01*
G37*
G36*
G01*
X16660000Y-3385000D02*
X16360000Y-3385000D01*
G75*
G02*
X16210000Y-3235000I0J150000D01*
G01*
X16210000Y-1585000D01*
G75*
G02*
X16360000Y-1435000I150000J0D01*
G01*
X16660000Y-1435000D01*
G75*
G02*
X16810000Y-1585000I0J-150000D01*
G01*
X16810000Y-3235000D01*
G75*
G02*
X16660000Y-3385000I-150000J0D01*
G01*
G37*
G36*
G01*
X-19234999Y-5020000D02*
X-20135001Y-5020000D01*
G75*
G02*
X-20385000Y-4770001I0J249999D01*
G01*
X-20385000Y-4119999D01*
G75*
G02*
X-20135001Y-3870000I249999J0D01*
G01*
X-19234999Y-3870000D01*
G75*
G02*
X-18985000Y-4119999I0J-249999D01*
G01*
X-18985000Y-4770001D01*
G75*
G02*
X-19234999Y-5020000I-249999J0D01*
G01*
G37*
G36*
G01*
X-19234999Y-7070000D02*
X-20135001Y-7070000D01*
G75*
G02*
X-20385000Y-6820001I0J249999D01*
G01*
X-20385000Y-6169999D01*
G75*
G02*
X-20135001Y-5920000I249999J0D01*
G01*
X-19234999Y-5920000D01*
G75*
G02*
X-18985000Y-6169999I0J-249999D01*
G01*
X-18985000Y-6820001D01*
G75*
G02*
X-19234999Y-7070000I-249999J0D01*
G01*
G37*
G36*
G01*
X-19234999Y5775000D02*
X-20135001Y5775000D01*
G75*
G02*
X-20385000Y6024999I0J249999D01*
G01*
X-20385000Y6675001D01*
G75*
G02*
X-20135001Y6925000I249999J0D01*
G01*
X-19234999Y6925000D01*
G75*
G02*
X-18985000Y6675001I0J-249999D01*
G01*
X-18985000Y6024999D01*
G75*
G02*
X-19234999Y5775000I-249999J0D01*
G01*
G37*
G36*
G01*
X-19234999Y3725000D02*
X-20135001Y3725000D01*
G75*
G02*
X-20385000Y3974999I0J249999D01*
G01*
X-20385000Y4625001D01*
G75*
G02*
X-20135001Y4875000I249999J0D01*
G01*
X-19234999Y4875000D01*
G75*
G02*
X-18985000Y4625001I0J-249999D01*
G01*
X-18985000Y3974999D01*
G75*
G02*
X-19234999Y3725000I-249999J0D01*
G01*
G37*
D10*
X-24900000Y-5395000D03*
X-22900000Y-4445000D03*
X-22900000Y-6345000D03*
X-25360000Y5400000D03*
X-23360000Y6350000D03*
X-23360000Y4450000D03*
D11*
X-13970000Y-17400000D03*
X-13970000Y-20700000D03*
X-17780000Y-17400000D03*
X-17780000Y-20700000D03*
G36*
G01*
X17927500Y-7441250D02*
X17927500Y-6528750D01*
G75*
G02*
X18171250Y-6285000I243750J0D01*
G01*
X18658750Y-6285000D01*
G75*
G02*
X18902500Y-6528750I0J-243750D01*
G01*
X18902500Y-7441250D01*
G75*
G02*
X18658750Y-7685000I-243750J0D01*
G01*
X18171250Y-7685000D01*
G75*
G02*
X17927500Y-7441250I0J243750D01*
G01*
G37*
G36*
G01*
X16052500Y-7441250D02*
X16052500Y-6528750D01*
G75*
G02*
X16296250Y-6285000I243750J0D01*
G01*
X16783750Y-6285000D01*
G75*
G02*
X17027500Y-6528750I0J-243750D01*
G01*
X17027500Y-7441250D01*
G75*
G02*
X16783750Y-7685000I-243750J0D01*
G01*
X16296250Y-7685000D01*
G75*
G02*
X16052500Y-7441250I0J243750D01*
G01*
G37*
M02*
