M48
; DRILL file {KiCad (5.1.10)-1} date 07/11/21 13:10:07
; FORMAT={-:-/ absolute / inch / decimal}
; #@! TF.CreationDate,2021-07-11T13:10:07-07:00
; #@! TF.GenerationSoftware,Kicad,Pcbnew,(5.1.10)-1
FMAT,2
INCH
T1C0.0200
T2C0.0290
T3C0.0354
T4C0.0360
T5C0.0394
T6C0.0394
T7C0.0433
T8C0.0590
T9C0.1260
%
G90
G05
T1
X-0.9Y-0.1
X0.525Y0.3
X0.605Y-0.175
X0.75Y0.035
X0.9Y0.3
T2
X0.65Y0.2
X0.825Y-0.275
T3
X-0.978Y0.5067
X-0.978Y-0.5067
X-0.928Y0.5933
X-0.928Y-0.5933
X-0.05Y-1.1
X-0.0496Y1.1
X0.05Y-1.1
X0.0504Y1.1
X0.928Y0.5933
X0.928Y-0.5933
X0.978Y0.5067
X0.978Y-0.5067
T4
X-0.7063Y0.9114
X-0.6519Y0.8275
X-0.6225Y0.9659
X-0.568Y0.882
X-0.5386Y1.0203
X-0.4841Y0.9365
T5
X-0.65Y0.05
X-0.65Y-0.05
T6
X-1.15Y0.4
X-0.4Y-1.05
X1.175Y0.3
T7
X-0.128Y0.8892
X-0.128Y0.712
X-0.128Y-0.7118
X-0.128Y-0.889
X0.1279Y0.8892
X0.1279Y0.712
X0.1279Y-0.7118
X0.1279Y-0.889
T8
X-0.49Y0.0
X0.2974Y0.0
T9
X-1.15Y0.0
X0.577Y0.996
X0.577Y-0.996
T0
M30
