G04 #@! TF.GenerationSoftware,KiCad,Pcbnew,(5.1.10)-1*
G04 #@! TF.CreationDate,2021-07-11T13:09:49-07:00*
G04 #@! TF.ProjectId,NightLight,4e696768-744c-4696-9768-742e6b696361,rev?*
G04 #@! TF.SameCoordinates,Original*
G04 #@! TF.FileFunction,Soldermask,Top*
G04 #@! TF.FilePolarity,Negative*
%FSLAX46Y46*%
G04 Gerber Fmt 4.6, Leading zero omitted, Abs format (unit mm)*
G04 Created by KiCad (PCBNEW (5.1.10)-1) date 2021-07-11 13:09:49*
%MOMM*%
%LPD*%
G01*
G04 APERTURE LIST*
%ADD10C,6.500000*%
%ADD11C,2.640000*%
%ADD12C,1.801800*%
%ADD13C,1.900000*%
%ADD14C,2.100000*%
G04 APERTURE END LIST*
G36*
G01*
X-13190185Y25161603D02*
X-13190185Y25161603D01*
G75*
G02*
X-14435164Y25426232I-490175J754804D01*
G01*
X-14435164Y25426232D01*
G75*
G02*
X-14170535Y26671211I754804J490175D01*
G01*
X-14170535Y26671211D01*
G75*
G02*
X-12925556Y26406582I490175J-754804D01*
G01*
X-12925556Y26406582D01*
G75*
G02*
X-13190185Y25161603I-754804J-490175D01*
G01*
G37*
G36*
G01*
X-11806802Y23031379D02*
X-11806802Y23031379D01*
G75*
G02*
X-13051781Y23296008I-490175J754804D01*
G01*
X-13051781Y23296008D01*
G75*
G02*
X-12787152Y24540987I754804J490175D01*
G01*
X-12787152Y24540987D01*
G75*
G02*
X-11542173Y24276358I490175J-754804D01*
G01*
X-11542173Y24276358D01*
G75*
G02*
X-11806802Y23031379I-754804J-490175D01*
G01*
G37*
G36*
G01*
X-15320408Y23778219D02*
X-15320408Y23778219D01*
G75*
G02*
X-16565387Y24042848I-490175J754804D01*
G01*
X-16565387Y24042848D01*
G75*
G02*
X-16300758Y25287827I754804J490175D01*
G01*
X-16300758Y25287827D01*
G75*
G02*
X-15055779Y25023198I490175J-754804D01*
G01*
X-15055779Y25023198D01*
G75*
G02*
X-15320408Y23778219I-754804J-490175D01*
G01*
G37*
G36*
G01*
X-13937025Y21647996D02*
X-13937025Y21647996D01*
G75*
G02*
X-15182004Y21912625I-490175J754804D01*
G01*
X-15182004Y21912625D01*
G75*
G02*
X-14917375Y23157604I754804J490175D01*
G01*
X-14917375Y23157604D01*
G75*
G02*
X-13672396Y22892975I490175J-754804D01*
G01*
X-13672396Y22892975D01*
G75*
G02*
X-13937025Y21647996I-754804J-490175D01*
G01*
G37*
G36*
G01*
X-17450631Y22394836D02*
X-17450631Y22394836D01*
G75*
G02*
X-18695610Y22659465I-490175J754804D01*
G01*
X-18695610Y22659465D01*
G75*
G02*
X-18430981Y23904444I754804J490175D01*
G01*
X-18430981Y23904444D01*
G75*
G02*
X-17186002Y23639815I490175J-754804D01*
G01*
X-17186002Y23639815D01*
G75*
G02*
X-17450631Y22394836I-754804J-490175D01*
G01*
G37*
G36*
G01*
X-15354378Y20727556D02*
X-16780118Y19801670D01*
G75*
G02*
X-16849284Y19816372I-27232J41934D01*
G01*
X-17775170Y21242112D01*
G75*
G02*
X-17760468Y21311278I41934J27232D01*
G01*
X-16334728Y22237164D01*
G75*
G02*
X-16265562Y22222462I27232J-41934D01*
G01*
X-15339676Y20796722D01*
G75*
G02*
X-15354378Y20727556I-41934J-27232D01*
G01*
G37*
D10*
X14655800Y-25298400D03*
X-29210000Y0D03*
X14655800Y25298400D03*
G36*
G01*
X16685000Y1515000D02*
X16335000Y1515000D01*
G75*
G02*
X16160000Y1690000I0J175000D01*
G01*
X16160000Y3390000D01*
G75*
G02*
X16335000Y3565000I175000J0D01*
G01*
X16685000Y3565000D01*
G75*
G02*
X16860000Y3390000I0J-175000D01*
G01*
X16860000Y1690000D01*
G75*
G02*
X16685000Y1515000I-175000J0D01*
G01*
G37*
G36*
G01*
X17955000Y1515000D02*
X17605000Y1515000D01*
G75*
G02*
X17430000Y1690000I0J175000D01*
G01*
X17430000Y3390000D01*
G75*
G02*
X17605000Y3565000I175000J0D01*
G01*
X17955000Y3565000D01*
G75*
G02*
X18130000Y3390000I0J-175000D01*
G01*
X18130000Y1690000D01*
G75*
G02*
X17955000Y1515000I-175000J0D01*
G01*
G37*
G36*
G01*
X19225000Y1515000D02*
X18875000Y1515000D01*
G75*
G02*
X18700000Y1690000I0J175000D01*
G01*
X18700000Y3390000D01*
G75*
G02*
X18875000Y3565000I175000J0D01*
G01*
X19225000Y3565000D01*
G75*
G02*
X19400000Y3390000I0J-175000D01*
G01*
X19400000Y1690000D01*
G75*
G02*
X19225000Y1515000I-175000J0D01*
G01*
G37*
G36*
G01*
X20495000Y1515000D02*
X20145000Y1515000D01*
G75*
G02*
X19970000Y1690000I0J175000D01*
G01*
X19970000Y3390000D01*
G75*
G02*
X20145000Y3565000I175000J0D01*
G01*
X20495000Y3565000D01*
G75*
G02*
X20670000Y3390000I0J-175000D01*
G01*
X20670000Y1690000D01*
G75*
G02*
X20495000Y1515000I-175000J0D01*
G01*
G37*
G36*
G01*
X21765000Y1515000D02*
X21415000Y1515000D01*
G75*
G02*
X21240000Y1690000I0J175000D01*
G01*
X21240000Y3390000D01*
G75*
G02*
X21415000Y3565000I175000J0D01*
G01*
X21765000Y3565000D01*
G75*
G02*
X21940000Y3390000I0J-175000D01*
G01*
X21940000Y1690000D01*
G75*
G02*
X21765000Y1515000I-175000J0D01*
G01*
G37*
G36*
G01*
X23035000Y1515000D02*
X22685000Y1515000D01*
G75*
G02*
X22510000Y1690000I0J175000D01*
G01*
X22510000Y3390000D01*
G75*
G02*
X22685000Y3565000I175000J0D01*
G01*
X23035000Y3565000D01*
G75*
G02*
X23210000Y3390000I0J-175000D01*
G01*
X23210000Y1690000D01*
G75*
G02*
X23035000Y1515000I-175000J0D01*
G01*
G37*
G36*
G01*
X24305000Y1515000D02*
X23955000Y1515000D01*
G75*
G02*
X23780000Y1690000I0J175000D01*
G01*
X23780000Y3390000D01*
G75*
G02*
X23955000Y3565000I175000J0D01*
G01*
X24305000Y3565000D01*
G75*
G02*
X24480000Y3390000I0J-175000D01*
G01*
X24480000Y1690000D01*
G75*
G02*
X24305000Y1515000I-175000J0D01*
G01*
G37*
G36*
G01*
X24305000Y-3435000D02*
X23955000Y-3435000D01*
G75*
G02*
X23780000Y-3260000I0J175000D01*
G01*
X23780000Y-1560000D01*
G75*
G02*
X23955000Y-1385000I175000J0D01*
G01*
X24305000Y-1385000D01*
G75*
G02*
X24480000Y-1560000I0J-175000D01*
G01*
X24480000Y-3260000D01*
G75*
G02*
X24305000Y-3435000I-175000J0D01*
G01*
G37*
G36*
G01*
X23035000Y-3435000D02*
X22685000Y-3435000D01*
G75*
G02*
X22510000Y-3260000I0J175000D01*
G01*
X22510000Y-1560000D01*
G75*
G02*
X22685000Y-1385000I175000J0D01*
G01*
X23035000Y-1385000D01*
G75*
G02*
X23210000Y-1560000I0J-175000D01*
G01*
X23210000Y-3260000D01*
G75*
G02*
X23035000Y-3435000I-175000J0D01*
G01*
G37*
G36*
G01*
X21765000Y-3435000D02*
X21415000Y-3435000D01*
G75*
G02*
X21240000Y-3260000I0J175000D01*
G01*
X21240000Y-1560000D01*
G75*
G02*
X21415000Y-1385000I175000J0D01*
G01*
X21765000Y-1385000D01*
G75*
G02*
X21940000Y-1560000I0J-175000D01*
G01*
X21940000Y-3260000D01*
G75*
G02*
X21765000Y-3435000I-175000J0D01*
G01*
G37*
G36*
G01*
X20495000Y-3435000D02*
X20145000Y-3435000D01*
G75*
G02*
X19970000Y-3260000I0J175000D01*
G01*
X19970000Y-1560000D01*
G75*
G02*
X20145000Y-1385000I175000J0D01*
G01*
X20495000Y-1385000D01*
G75*
G02*
X20670000Y-1560000I0J-175000D01*
G01*
X20670000Y-3260000D01*
G75*
G02*
X20495000Y-3435000I-175000J0D01*
G01*
G37*
G36*
G01*
X19225000Y-3435000D02*
X18875000Y-3435000D01*
G75*
G02*
X18700000Y-3260000I0J175000D01*
G01*
X18700000Y-1560000D01*
G75*
G02*
X18875000Y-1385000I175000J0D01*
G01*
X19225000Y-1385000D01*
G75*
G02*
X19400000Y-1560000I0J-175000D01*
G01*
X19400000Y-3260000D01*
G75*
G02*
X19225000Y-3435000I-175000J0D01*
G01*
G37*
G36*
G01*
X17955000Y-3435000D02*
X17605000Y-3435000D01*
G75*
G02*
X17430000Y-3260000I0J175000D01*
G01*
X17430000Y-1560000D01*
G75*
G02*
X17605000Y-1385000I175000J0D01*
G01*
X17955000Y-1385000D01*
G75*
G02*
X18130000Y-1560000I0J-175000D01*
G01*
X18130000Y-3260000D01*
G75*
G02*
X17955000Y-3435000I-175000J0D01*
G01*
G37*
G36*
G01*
X16685000Y-3435000D02*
X16335000Y-3435000D01*
G75*
G02*
X16160000Y-3260000I0J175000D01*
G01*
X16160000Y-1560000D01*
G75*
G02*
X16335000Y-1385000I175000J0D01*
G01*
X16685000Y-1385000D01*
G75*
G02*
X16860000Y-1560000I0J-175000D01*
G01*
X16860000Y-3260000D01*
G75*
G02*
X16685000Y-3435000I-175000J0D01*
G01*
G37*
G36*
G01*
X-19206738Y-5070000D02*
X-20163262Y-5070000D01*
G75*
G02*
X-20435000Y-4798262I0J271738D01*
G01*
X-20435000Y-4091738D01*
G75*
G02*
X-20163262Y-3820000I271738J0D01*
G01*
X-19206738Y-3820000D01*
G75*
G02*
X-18935000Y-4091738I0J-271738D01*
G01*
X-18935000Y-4798262D01*
G75*
G02*
X-19206738Y-5070000I-271738J0D01*
G01*
G37*
G36*
G01*
X-19206738Y-7120000D02*
X-20163262Y-7120000D01*
G75*
G02*
X-20435000Y-6848262I0J271738D01*
G01*
X-20435000Y-6141738D01*
G75*
G02*
X-20163262Y-5870000I271738J0D01*
G01*
X-19206738Y-5870000D01*
G75*
G02*
X-18935000Y-6141738I0J-271738D01*
G01*
X-18935000Y-6848262D01*
G75*
G02*
X-19206738Y-7120000I-271738J0D01*
G01*
G37*
G36*
G01*
X-19206738Y5725000D02*
X-20163262Y5725000D01*
G75*
G02*
X-20435000Y5996738I0J271738D01*
G01*
X-20435000Y6703262D01*
G75*
G02*
X-20163262Y6975000I271738J0D01*
G01*
X-19206738Y6975000D01*
G75*
G02*
X-18935000Y6703262I0J-271738D01*
G01*
X-18935000Y5996738D01*
G75*
G02*
X-19206738Y5725000I-271738J0D01*
G01*
G37*
G36*
G01*
X-19206738Y3675000D02*
X-20163262Y3675000D01*
G75*
G02*
X-20435000Y3946738I0J271738D01*
G01*
X-20435000Y4653262D01*
G75*
G02*
X-20163262Y4925000I271738J0D01*
G01*
X-19206738Y4925000D01*
G75*
G02*
X-18935000Y4653262I0J-271738D01*
G01*
X-18935000Y3946738D01*
G75*
G02*
X-19206738Y3675000I-271738J0D01*
G01*
G37*
G36*
G01*
X-24400000Y-4995000D02*
X-24400000Y-5795000D01*
G75*
G02*
X-24450000Y-5845000I-50000J0D01*
G01*
X-25350000Y-5845000D01*
G75*
G02*
X-25400000Y-5795000I0J50000D01*
G01*
X-25400000Y-4995000D01*
G75*
G02*
X-25350000Y-4945000I50000J0D01*
G01*
X-24450000Y-4945000D01*
G75*
G02*
X-24400000Y-4995000I0J-50000D01*
G01*
G37*
G36*
G01*
X-22400000Y-4045000D02*
X-22400000Y-4845000D01*
G75*
G02*
X-22450000Y-4895000I-50000J0D01*
G01*
X-23350000Y-4895000D01*
G75*
G02*
X-23400000Y-4845000I0J50000D01*
G01*
X-23400000Y-4045000D01*
G75*
G02*
X-23350000Y-3995000I50000J0D01*
G01*
X-22450000Y-3995000D01*
G75*
G02*
X-22400000Y-4045000I0J-50000D01*
G01*
G37*
G36*
G01*
X-22400000Y-5945000D02*
X-22400000Y-6745000D01*
G75*
G02*
X-22450000Y-6795000I-50000J0D01*
G01*
X-23350000Y-6795000D01*
G75*
G02*
X-23400000Y-6745000I0J50000D01*
G01*
X-23400000Y-5945000D01*
G75*
G02*
X-23350000Y-5895000I50000J0D01*
G01*
X-22450000Y-5895000D01*
G75*
G02*
X-22400000Y-5945000I0J-50000D01*
G01*
G37*
G36*
G01*
X-24860000Y5800000D02*
X-24860000Y5000000D01*
G75*
G02*
X-24910000Y4950000I-50000J0D01*
G01*
X-25810000Y4950000D01*
G75*
G02*
X-25860000Y5000000I0J50000D01*
G01*
X-25860000Y5800000D01*
G75*
G02*
X-25810000Y5850000I50000J0D01*
G01*
X-24910000Y5850000D01*
G75*
G02*
X-24860000Y5800000I0J-50000D01*
G01*
G37*
G36*
G01*
X-22860000Y6750000D02*
X-22860000Y5950000D01*
G75*
G02*
X-22910000Y5900000I-50000J0D01*
G01*
X-23810000Y5900000D01*
G75*
G02*
X-23860000Y5950000I0J50000D01*
G01*
X-23860000Y6750000D01*
G75*
G02*
X-23810000Y6800000I50000J0D01*
G01*
X-22910000Y6800000D01*
G75*
G02*
X-22860000Y6750000I0J-50000D01*
G01*
G37*
G36*
G01*
X-22860000Y4850000D02*
X-22860000Y4050000D01*
G75*
G02*
X-22910000Y4000000I-50000J0D01*
G01*
X-23810000Y4000000D01*
G75*
G02*
X-23860000Y4050000I0J50000D01*
G01*
X-23860000Y4850000D01*
G75*
G02*
X-23810000Y4900000I50000J0D01*
G01*
X-22910000Y4900000D01*
G75*
G02*
X-22860000Y4850000I0J-50000D01*
G01*
G37*
G36*
G01*
X-13370000Y-17900000D02*
X-14570000Y-17900000D01*
G75*
G02*
X-14620000Y-17850000I0J50000D01*
G01*
X-14620000Y-16950000D01*
G75*
G02*
X-14570000Y-16900000I50000J0D01*
G01*
X-13370000Y-16900000D01*
G75*
G02*
X-13320000Y-16950000I0J-50000D01*
G01*
X-13320000Y-17850000D01*
G75*
G02*
X-13370000Y-17900000I-50000J0D01*
G01*
G37*
G36*
G01*
X-13370000Y-21200000D02*
X-14570000Y-21200000D01*
G75*
G02*
X-14620000Y-21150000I0J50000D01*
G01*
X-14620000Y-20250000D01*
G75*
G02*
X-14570000Y-20200000I50000J0D01*
G01*
X-13370000Y-20200000D01*
G75*
G02*
X-13320000Y-20250000I0J-50000D01*
G01*
X-13320000Y-21150000D01*
G75*
G02*
X-13370000Y-21200000I-50000J0D01*
G01*
G37*
G36*
G01*
X-17180000Y-17900000D02*
X-18380000Y-17900000D01*
G75*
G02*
X-18430000Y-17850000I0J50000D01*
G01*
X-18430000Y-16950000D01*
G75*
G02*
X-18380000Y-16900000I50000J0D01*
G01*
X-17180000Y-16900000D01*
G75*
G02*
X-17130000Y-16950000I0J-50000D01*
G01*
X-17130000Y-17850000D01*
G75*
G02*
X-17180000Y-17900000I-50000J0D01*
G01*
G37*
G36*
G01*
X-17180000Y-21200000D02*
X-18380000Y-21200000D01*
G75*
G02*
X-18430000Y-21150000I0J50000D01*
G01*
X-18430000Y-20250000D01*
G75*
G02*
X-18380000Y-20200000I50000J0D01*
G01*
X-17180000Y-20200000D01*
G75*
G02*
X-17130000Y-20250000I0J-50000D01*
G01*
X-17130000Y-21150000D01*
G75*
G02*
X-17180000Y-21200000I-50000J0D01*
G01*
G37*
G36*
G01*
X17877500Y-7466250D02*
X17877500Y-6503750D01*
G75*
G02*
X18146250Y-6235000I268750J0D01*
G01*
X18683750Y-6235000D01*
G75*
G02*
X18952500Y-6503750I0J-268750D01*
G01*
X18952500Y-7466250D01*
G75*
G02*
X18683750Y-7735000I-268750J0D01*
G01*
X18146250Y-7735000D01*
G75*
G02*
X17877500Y-7466250I0J268750D01*
G01*
G37*
G36*
G01*
X16002500Y-7466250D02*
X16002500Y-6503750D01*
G75*
G02*
X16271250Y-6235000I268750J0D01*
G01*
X16808750Y-6235000D01*
G75*
G02*
X17077500Y-6503750I0J-268750D01*
G01*
X17077500Y-7466250D01*
G75*
G02*
X16808750Y-7735000I-268750J0D01*
G01*
X16271250Y-7735000D01*
G75*
G02*
X16002500Y-7466250I0J268750D01*
G01*
G37*
D11*
X7554000Y0D03*
G36*
G01*
X-11176000Y-1320000D02*
X-13716000Y-1320000D01*
G75*
G02*
X-13766000Y-1270000I0J50000D01*
G01*
X-13766000Y1270000D01*
G75*
G02*
X-13716000Y1320000I50000J0D01*
G01*
X-11176000Y1320000D01*
G75*
G02*
X-11126000Y1270000I0J-50000D01*
G01*
X-11126000Y-1270000D01*
G75*
G02*
X-11176000Y-1320000I-50000J0D01*
G01*
G37*
D12*
X-16510000Y1270000D03*
X-16510000Y-1270000D03*
D13*
X-23571200Y15069852D03*
G36*
G01*
X-24536777Y11597424D02*
X-26095623Y12497424D01*
G75*
G02*
X-26113924Y12565725I25000J43301D01*
G01*
X-25213924Y14124571D01*
G75*
G02*
X-25145623Y14142872I43301J-25000D01*
G01*
X-23586777Y13242872D01*
G75*
G02*
X-23568476Y13174571I-25000J-43301D01*
G01*
X-24468476Y11615725D01*
G75*
G02*
X-24536777Y11597424I-43301J25000D01*
G01*
G37*
X-24841200Y-12870148D03*
G36*
G01*
X-22316777Y-15442576D02*
X-23875623Y-16342576D01*
G75*
G02*
X-23943924Y-16324275I-25000J43301D01*
G01*
X-24843924Y-14765429D01*
G75*
G02*
X-24825623Y-14697128I43301J25000D01*
G01*
X-23266777Y-13797128D01*
G75*
G02*
X-23198476Y-13815429I25000J-43301D01*
G01*
X-22298476Y-15374275D01*
G75*
G02*
X-22316777Y-15442576I-43301J-25000D01*
G01*
G37*
X-1270000Y-27940000D03*
G36*
G01*
X2220000Y-27040000D02*
X2220000Y-28840000D01*
G75*
G02*
X2170000Y-28890000I-50000J0D01*
G01*
X370000Y-28890000D01*
G75*
G02*
X320000Y-28840000I0J50000D01*
G01*
X320000Y-27040000D01*
G75*
G02*
X370000Y-26990000I50000J0D01*
G01*
X2170000Y-26990000D01*
G75*
G02*
X2220000Y-27040000I0J-50000D01*
G01*
G37*
X23571200Y-15069852D03*
G36*
G01*
X24536777Y-11597424D02*
X26095623Y-12497424D01*
G75*
G02*
X26113924Y-12565725I-25000J-43301D01*
G01*
X25213924Y-14124571D01*
G75*
G02*
X25145623Y-14142872I-43301J25000D01*
G01*
X23586777Y-13242872D01*
G75*
G02*
X23568476Y-13174571I25000J43301D01*
G01*
X24468476Y-11615725D01*
G75*
G02*
X24536777Y-11597424I43301J-25000D01*
G01*
G37*
X24841200Y12870148D03*
G36*
G01*
X22316777Y15442576D02*
X23875623Y16342576D01*
G75*
G02*
X23943924Y16324275I25000J-43301D01*
G01*
X24843924Y14765429D01*
G75*
G02*
X24825623Y14697128I-43301J-25000D01*
G01*
X23266777Y13797128D01*
G75*
G02*
X23198476Y13815429I-25000J43301D01*
G01*
X22298476Y15374275D01*
G75*
G02*
X22316777Y15442576I43301J25000D01*
G01*
G37*
X1279000Y27940000D03*
G36*
G01*
X-2211000Y27040000D02*
X-2211000Y28840000D01*
G75*
G02*
X-2161000Y28890000I50000J0D01*
G01*
X-361000Y28890000D01*
G75*
G02*
X-311000Y28840000I0J-50000D01*
G01*
X-311000Y27040000D01*
G75*
G02*
X-361000Y26990000I-50000J0D01*
G01*
X-2161000Y26990000D01*
G75*
G02*
X-2211000Y27040000I0J50000D01*
G01*
G37*
D14*
X29845000Y7620000D03*
X-10160000Y-26670000D03*
X-29210000Y10160000D03*
X3248800Y18084800D03*
X3248800Y22584800D03*
X-3251200Y18084800D03*
X-3251200Y22584800D03*
X3248800Y-22580600D03*
X3248800Y-18080600D03*
X-3251200Y-22580600D03*
X-3251200Y-18080600D03*
M02*
