G04 #@! TF.GenerationSoftware,KiCad,Pcbnew,(5.1.10)-1*
G04 #@! TF.CreationDate,2021-07-11T13:09:49-07:00*
G04 #@! TF.ProjectId,NightLight,4e696768-744c-4696-9768-742e6b696361,rev?*
G04 #@! TF.SameCoordinates,Original*
G04 #@! TF.FileFunction,Legend,Bot*
G04 #@! TF.FilePolarity,Positive*
%FSLAX46Y46*%
G04 Gerber Fmt 4.6, Leading zero omitted, Abs format (unit mm)*
G04 Created by KiCad (PCBNEW (5.1.10)-1) date 2021-07-11 13:09:49*
%MOMM*%
%LPD*%
G01*
G04 APERTURE LIST*
%ADD10C,0.203200*%
%ADD11C,0.177800*%
%ADD12C,0.120000*%
%ADD13C,0.150000*%
G04 APERTURE END LIST*
D10*
X2298095Y14665476D02*
X2298095Y15935476D01*
X1874761Y15028333D01*
X1451428Y15935476D01*
X1451428Y14665476D01*
X604761Y15935476D02*
X362857Y15935476D01*
X241904Y15875000D01*
X120952Y15754047D01*
X60476Y15512142D01*
X60476Y15088809D01*
X120952Y14846904D01*
X241904Y14725952D01*
X362857Y14665476D01*
X604761Y14665476D01*
X725714Y14725952D01*
X846666Y14846904D01*
X907142Y15088809D01*
X907142Y15512142D01*
X846666Y15754047D01*
X725714Y15875000D01*
X604761Y15935476D01*
X-483809Y14665476D02*
X-483809Y15935476D01*
X-786190Y15935476D01*
X-967619Y15875000D01*
X-1088571Y15754047D01*
X-1149047Y15633095D01*
X-1209523Y15391190D01*
X-1209523Y15209761D01*
X-1149047Y14967857D01*
X-1088571Y14846904D01*
X-967619Y14725952D01*
X-786190Y14665476D01*
X-483809Y14665476D01*
X-1753809Y15330714D02*
X-2177142Y15330714D01*
X-2358571Y14665476D02*
X-1753809Y14665476D01*
X-1753809Y15935476D01*
X-2358571Y15935476D01*
X2933095Y-15814523D02*
X2933095Y-14544523D01*
X2449285Y-14544523D01*
X2328333Y-14605000D01*
X2267857Y-14665476D01*
X2207380Y-14786428D01*
X2207380Y-14967857D01*
X2267857Y-15088809D01*
X2328333Y-15149285D01*
X2449285Y-15209761D01*
X2933095Y-15209761D01*
X1421190Y-14544523D02*
X1179285Y-14544523D01*
X1058333Y-14605000D01*
X937380Y-14725952D01*
X876904Y-14967857D01*
X876904Y-15391190D01*
X937380Y-15633095D01*
X1058333Y-15754047D01*
X1179285Y-15814523D01*
X1421190Y-15814523D01*
X1542142Y-15754047D01*
X1663095Y-15633095D01*
X1723571Y-15391190D01*
X1723571Y-14967857D01*
X1663095Y-14725952D01*
X1542142Y-14605000D01*
X1421190Y-14544523D01*
X453571Y-14544523D02*
X151190Y-15814523D01*
X-90714Y-14907380D01*
X-332619Y-15814523D01*
X-635000Y-14544523D01*
X-1118809Y-15149285D02*
X-1542142Y-15149285D01*
X-1723571Y-15814523D02*
X-1118809Y-15814523D01*
X-1118809Y-14544523D01*
X-1723571Y-14544523D01*
X-2993571Y-15814523D02*
X-2570238Y-15209761D01*
X-2267857Y-15814523D02*
X-2267857Y-14544523D01*
X-2751666Y-14544523D01*
X-2872619Y-14605000D01*
X-2933095Y-14665476D01*
X-2993571Y-14786428D01*
X-2993571Y-14967857D01*
X-2933095Y-15088809D01*
X-2872619Y-15149285D01*
X-2751666Y-15209761D01*
X-2267857Y-15209761D01*
D11*
X11473300Y-7329145D02*
X11558827Y-7329145D01*
X11729879Y-7243619D01*
X11815405Y-7158093D01*
X11900932Y-6987040D01*
X11900932Y-6815988D01*
X11858169Y-6687699D01*
X11729879Y-6473883D01*
X11601590Y-6345594D01*
X11387774Y-6217304D01*
X11259485Y-6174541D01*
X11088432Y-6174541D01*
X10917380Y-6260067D01*
X10831854Y-6345594D01*
X10746327Y-6516646D01*
X10746327Y-6602172D01*
X10660801Y-8312697D02*
X10532512Y-7585724D01*
X11173959Y-7799540D02*
X10275933Y-6901514D01*
X9933828Y-7243619D01*
X9891065Y-7371909D01*
X9891065Y-7457435D01*
X9933828Y-7585724D01*
X10062117Y-7714014D01*
X10190407Y-7756777D01*
X10275933Y-7756777D01*
X10404222Y-7714014D01*
X10746327Y-7371909D01*
X9506197Y-7842303D02*
X9420670Y-7842303D01*
X9292381Y-7885066D01*
X9078565Y-8098882D01*
X9035802Y-8227171D01*
X9035802Y-8312697D01*
X9078565Y-8440987D01*
X9164092Y-8526513D01*
X9335144Y-8612039D01*
X10361459Y-8612039D01*
X9805539Y-9167960D01*
X8351592Y-8825855D02*
X8266066Y-8911381D01*
X8223303Y-9039670D01*
X8223303Y-9125197D01*
X8266066Y-9253486D01*
X8394355Y-9467302D01*
X8608171Y-9681117D01*
X8821987Y-9809407D01*
X8950276Y-9852170D01*
X9035802Y-9852170D01*
X9164092Y-9809407D01*
X9249618Y-9723880D01*
X9292381Y-9595591D01*
X9292381Y-9510065D01*
X9249618Y-9381775D01*
X9121329Y-9167960D01*
X8907513Y-8954144D01*
X8693697Y-8825855D01*
X8565408Y-8783092D01*
X8479882Y-8783092D01*
X8351592Y-8825855D01*
X7752909Y-9424539D02*
X7196988Y-9980459D01*
X7838435Y-10023222D01*
X7710145Y-10151512D01*
X7667382Y-10279801D01*
X7667382Y-10365327D01*
X7710145Y-10493617D01*
X7923961Y-10707432D01*
X8052250Y-10750195D01*
X8137777Y-10750195D01*
X8266066Y-10707432D01*
X8522645Y-10450854D01*
X8565408Y-10322564D01*
X8565408Y-10237038D01*
X6940409Y-10408090D02*
X6854883Y-10408090D01*
X6726594Y-10450854D01*
X6512778Y-10664669D01*
X6470015Y-10792959D01*
X6470015Y-10878485D01*
X6512778Y-11006774D01*
X6598304Y-11092300D01*
X6769357Y-11177827D01*
X7795672Y-11177827D01*
X7239751Y-11733747D01*
D12*
X-13776000Y-3810000D02*
X-10541000Y-3810000D01*
X-13776000Y3810000D02*
X-10541000Y3810000D01*
X-13776000Y3810000D02*
X-13776000Y-3810000D01*
X-10500194Y-3813553D02*
G75*
G03*
X-10464799Y3810000I10576394J3762753D01*
G01*
X3498800Y21084800D02*
X3498800Y19584800D01*
X2248800Y17084800D02*
X-2251200Y17084800D01*
X-3501200Y19584800D02*
X-3501200Y21084800D01*
X-2251200Y23584800D02*
X2248800Y23584800D01*
X3498800Y-19580600D02*
X3498800Y-21080600D01*
X2248800Y-23580600D02*
X-2251200Y-23580600D01*
X-3501200Y-21080600D02*
X-3501200Y-19580600D01*
X-2251200Y-17080600D02*
X2248800Y-17080600D01*
D13*
X-11533285Y-4881571D02*
X-11676142Y-4929190D01*
X-11723761Y-4976809D01*
X-11771380Y-5072047D01*
X-11771380Y-5214904D01*
X-11723761Y-5310142D01*
X-11676142Y-5357761D01*
X-11580904Y-5405380D01*
X-11199952Y-5405380D01*
X-11199952Y-4405380D01*
X-11533285Y-4405380D01*
X-11628523Y-4453000D01*
X-11676142Y-4500619D01*
X-11723761Y-4595857D01*
X-11723761Y-4691095D01*
X-11676142Y-4786333D01*
X-11628523Y-4833952D01*
X-11533285Y-4881571D01*
X-11199952Y-4881571D01*
X-12057095Y-4405380D02*
X-12628523Y-4405380D01*
X-12342809Y-5405380D02*
X-12342809Y-4405380D01*
X-13485666Y-5405380D02*
X-12914238Y-5405380D01*
X-13199952Y-5405380D02*
X-13199952Y-4405380D01*
X-13104714Y-4548238D01*
X-13009476Y-4643476D01*
X-12914238Y-4691095D01*
X1333333Y19915238D02*
X1190476Y19867619D01*
X952380Y19867619D01*
X857142Y19915238D01*
X809523Y19962857D01*
X761904Y20058095D01*
X761904Y20153333D01*
X809523Y20248571D01*
X857142Y20296190D01*
X952380Y20343809D01*
X1142857Y20391428D01*
X1238095Y20439047D01*
X1285714Y20486666D01*
X1333333Y20581904D01*
X1333333Y20677142D01*
X1285714Y20772380D01*
X1238095Y20820000D01*
X1142857Y20867619D01*
X904761Y20867619D01*
X761904Y20820000D01*
X428571Y20867619D02*
X190476Y19867619D01*
X0Y20581904D01*
X-190476Y19867619D01*
X-428571Y20867619D01*
X-761904Y20772380D02*
X-809523Y20820000D01*
X-904761Y20867619D01*
X-1142857Y20867619D01*
X-1238095Y20820000D01*
X-1285714Y20772380D01*
X-1333333Y20677142D01*
X-1333333Y20581904D01*
X-1285714Y20439047D01*
X-714285Y19867619D01*
X-1333333Y19867619D01*
X1333333Y-20724761D02*
X1190476Y-20772380D01*
X952380Y-20772380D01*
X857142Y-20724761D01*
X809523Y-20677142D01*
X761904Y-20581904D01*
X761904Y-20486666D01*
X809523Y-20391428D01*
X857142Y-20343809D01*
X952380Y-20296190D01*
X1142857Y-20248571D01*
X1238095Y-20200952D01*
X1285714Y-20153333D01*
X1333333Y-20058095D01*
X1333333Y-19962857D01*
X1285714Y-19867619D01*
X1238095Y-19820000D01*
X1142857Y-19772380D01*
X904761Y-19772380D01*
X761904Y-19820000D01*
X428571Y-19772380D02*
X190476Y-20772380D01*
X0Y-20058095D01*
X-190476Y-20772380D01*
X-428571Y-19772380D01*
X-1333333Y-20772380D02*
X-761904Y-20772380D01*
X-1047619Y-20772380D02*
X-1047619Y-19772380D01*
X-952380Y-19915238D01*
X-857142Y-20010476D01*
X-761904Y-20058095D01*
M02*
